G04 #@! TF.GenerationSoftware,KiCad,Pcbnew,(5.0.0)*
G04 #@! TF.CreationDate,2019-01-14T15:32:29+09:00*
G04 #@! TF.ProjectId,kp21,6B7032312E6B696361645F7063620000,rev?*
G04 #@! TF.SameCoordinates,Original*
G04 #@! TF.FileFunction,Soldermask,Bot*
G04 #@! TF.FilePolarity,Negative*
%FSLAX46Y46*%
G04 Gerber Fmt 4.6, Leading zero omitted, Abs format (unit mm)*
G04 Created by KiCad (PCBNEW (5.0.0)) date 01/14/19 15:32:29*
%MOMM*%
%LPD*%
G01*
G04 APERTURE LIST*
%ADD10C,2.900000*%
%ADD11C,2.900000*%
%ADD12C,2.100000*%
%ADD13C,4.400000*%
%ADD14O,2.900000X5.200000*%
%ADD15R,0.700000X0.600000*%
%ADD16C,0.700000*%
%ADD17C,0.100000*%
%ADD18C,1.000000*%
%ADD19C,1.300000*%
%ADD20C,1.300000*%
%ADD21C,1.950000*%
%ADD22R,1.950000X1.950000*%
%ADD23R,1.400000X2.100000*%
%ADD24R,1.700000X1.400000*%
%ADD25R,1.400000X1.700000*%
%ADD26R,2.200000X2.200000*%
%ADD27R,1.400000X1.800000*%
%ADD28R,1.600000X1.800000*%
%ADD29R,1.900000X1.400000*%
%ADD30R,2.000000X1.400000*%
%ADD31C,1.400000*%
%ADD32C,4.100000*%
%ADD33R,1.350000X1.500000*%
%ADD34R,2.400000X2.150000*%
G04 APERTURE END LIST*
D10*
G04 #@! TO.C,SW17*
X188660000Y-89020000D03*
D11*
X187990869Y-89763145D02*
X189329131Y-88276855D01*
D10*
X182340000Y-89230000D03*
D11*
X182999613Y-90172025D02*
X181680387Y-88287975D01*
D12*
X180420000Y-85750000D03*
X190580000Y-85750000D03*
D13*
X185500000Y-85750000D03*
D10*
X182960000Y-90830000D03*
X188040000Y-90830000D03*
G04 #@! TD*
G04 #@! TO.C,SW18*
X204091063Y-119383932D03*
D11*
X203252392Y-119928571D02*
X204929734Y-118839293D01*
D10*
X197932060Y-117951040D03*
D11*
X198325383Y-119031687D02*
X197538737Y-116870393D01*
D12*
X196978173Y-114092685D03*
X206791979Y-116722287D03*
D13*
X201885076Y-115407486D03*
D10*
X198116824Y-119656989D03*
X203023727Y-120971790D03*
G04 #@! TD*
G04 #@! TO.C,SW2*
X112660000Y-55770000D03*
D11*
X111990869Y-56513145D02*
X113329131Y-55026855D01*
D10*
X106340000Y-55980000D03*
D11*
X106999613Y-56922025D02*
X105680387Y-55037975D01*
D12*
X104420000Y-52500000D03*
X114580000Y-52500000D03*
D13*
X109500000Y-52500000D03*
D10*
X106960000Y-57580000D03*
X112040000Y-57580000D03*
G04 #@! TD*
G04 #@! TO.C,SW3*
X112660000Y-74770000D03*
D11*
X111990869Y-75513145D02*
X113329131Y-74026855D01*
D10*
X106340000Y-74980000D03*
D11*
X106999613Y-75922025D02*
X105680387Y-74037975D01*
D12*
X104420000Y-71500000D03*
X114580000Y-71500000D03*
D13*
X109500000Y-71500000D03*
D10*
X106960000Y-76580000D03*
X112040000Y-76580000D03*
G04 #@! TD*
G04 #@! TO.C,SW4*
X112660000Y-93770000D03*
D11*
X111990869Y-94513145D02*
X113329131Y-93026855D01*
D10*
X106340000Y-93980000D03*
D11*
X106999613Y-94922025D02*
X105680387Y-93037975D01*
D12*
X104420000Y-90500000D03*
X114580000Y-90500000D03*
D13*
X109500000Y-90500000D03*
D10*
X106960000Y-95580000D03*
X112040000Y-95580000D03*
G04 #@! TD*
G04 #@! TO.C,SW5*
X131660000Y-55770000D03*
D11*
X130990869Y-56513145D02*
X132329131Y-55026855D01*
D10*
X125340000Y-55980000D03*
D11*
X125999613Y-56922025D02*
X124680387Y-55037975D01*
D12*
X123420000Y-52500000D03*
X133580000Y-52500000D03*
D13*
X128500000Y-52500000D03*
D10*
X125960000Y-57580000D03*
X131040000Y-57580000D03*
G04 #@! TD*
G04 #@! TO.C,SW6*
X131660000Y-74770000D03*
D11*
X130990869Y-75513145D02*
X132329131Y-74026855D01*
D10*
X125340000Y-74980000D03*
D11*
X125999613Y-75922025D02*
X124680387Y-74037975D01*
D12*
X123420000Y-71500000D03*
X133580000Y-71500000D03*
D13*
X128500000Y-71500000D03*
D10*
X125960000Y-76580000D03*
X131040000Y-76580000D03*
G04 #@! TD*
G04 #@! TO.C,SW7*
X131660000Y-93770000D03*
D11*
X130990869Y-94513145D02*
X132329131Y-93026855D01*
D10*
X125340000Y-93980000D03*
D11*
X125999613Y-94922025D02*
X124680387Y-93037975D01*
D12*
X123420000Y-90500000D03*
X133580000Y-90500000D03*
D13*
X128500000Y-90500000D03*
D10*
X125960000Y-95580000D03*
X131040000Y-95580000D03*
G04 #@! TD*
G04 #@! TO.C,SW8*
X150660000Y-51020000D03*
D11*
X149990869Y-51763145D02*
X151329131Y-50276855D01*
D10*
X144340000Y-51230000D03*
D11*
X144999613Y-52172025D02*
X143680387Y-50287975D01*
D12*
X142420000Y-47750000D03*
X152580000Y-47750000D03*
D13*
X147500000Y-47750000D03*
D10*
X144960000Y-52830000D03*
X150040000Y-52830000D03*
G04 #@! TD*
G04 #@! TO.C,SW9*
X150660000Y-70020000D03*
D11*
X149990869Y-70763145D02*
X151329131Y-69276855D01*
D10*
X144340000Y-70230000D03*
D11*
X144999613Y-71172025D02*
X143680387Y-69287975D01*
D12*
X142420000Y-66750000D03*
X152580000Y-66750000D03*
D13*
X147500000Y-66750000D03*
D10*
X144960000Y-71830000D03*
X150040000Y-71830000D03*
G04 #@! TD*
G04 #@! TO.C,SW10*
X150660000Y-89020000D03*
D11*
X149990869Y-89763145D02*
X151329131Y-88276855D01*
D10*
X144340000Y-89230000D03*
D11*
X144999613Y-90172025D02*
X143680387Y-88287975D01*
D12*
X142420000Y-85750000D03*
X152580000Y-85750000D03*
D13*
X147500000Y-85750000D03*
D10*
X144960000Y-90830000D03*
X150040000Y-90830000D03*
G04 #@! TD*
G04 #@! TO.C,SW11*
X169660000Y-48645000D03*
D11*
X168990869Y-49388145D02*
X170329131Y-47901855D01*
D10*
X163340000Y-48855000D03*
D11*
X163999613Y-49797025D02*
X162680387Y-47912975D01*
D12*
X161420000Y-45375000D03*
X171580000Y-45375000D03*
D13*
X166500000Y-45375000D03*
D10*
X163960000Y-50455000D03*
X169040000Y-50455000D03*
G04 #@! TD*
G04 #@! TO.C,SW12*
X169660000Y-67645000D03*
D11*
X168990869Y-68388145D02*
X170329131Y-66901855D01*
D10*
X163340000Y-67855000D03*
D11*
X163999613Y-68797025D02*
X162680387Y-66912975D01*
D12*
X161420000Y-64375000D03*
X171580000Y-64375000D03*
D13*
X166500000Y-64375000D03*
D10*
X163960000Y-69455000D03*
X169040000Y-69455000D03*
G04 #@! TD*
G04 #@! TO.C,SW13*
X169660000Y-86645000D03*
D11*
X168990869Y-87388145D02*
X170329131Y-85901855D01*
D10*
X163340000Y-86855000D03*
D11*
X163999613Y-87797025D02*
X162680387Y-85912975D01*
D12*
X161420000Y-83375000D03*
X171580000Y-83375000D03*
D13*
X166500000Y-83375000D03*
D10*
X163960000Y-88455000D03*
X169040000Y-88455000D03*
G04 #@! TD*
G04 #@! TO.C,SW14*
X183910000Y-115895000D03*
D11*
X183240869Y-116638145D02*
X184579131Y-115151855D01*
D10*
X177590000Y-116105000D03*
D11*
X178249613Y-117047025D02*
X176930387Y-115162975D01*
D12*
X175670000Y-112625000D03*
X185830000Y-112625000D03*
D13*
X180750000Y-112625000D03*
D10*
X178210000Y-117705000D03*
X183290000Y-117705000D03*
G04 #@! TD*
G04 #@! TO.C,SW15*
X188660000Y-51020000D03*
D11*
X187990869Y-51763145D02*
X189329131Y-50276855D01*
D10*
X182340000Y-51230000D03*
D11*
X182999613Y-52172025D02*
X181680387Y-50287975D01*
D12*
X180420000Y-47750000D03*
X190580000Y-47750000D03*
D13*
X185500000Y-47750000D03*
D10*
X182960000Y-52830000D03*
X188040000Y-52830000D03*
G04 #@! TD*
G04 #@! TO.C,SW16*
X188660000Y-70020000D03*
D11*
X187990869Y-70763145D02*
X189329131Y-69276855D01*
D10*
X182340000Y-70230000D03*
D11*
X182999613Y-71172025D02*
X181680387Y-69287975D01*
D12*
X180420000Y-66750000D03*
X190580000Y-66750000D03*
D13*
X185500000Y-66750000D03*
D10*
X182960000Y-71830000D03*
X188040000Y-71830000D03*
G04 #@! TD*
G04 #@! TO.C,SW19*
X207660000Y-53395000D03*
D11*
X206990869Y-54138145D02*
X208329131Y-52651855D01*
D10*
X201340000Y-53605000D03*
D11*
X201999613Y-54547025D02*
X200680387Y-52662975D01*
D12*
X199420000Y-50125000D03*
X209580000Y-50125000D03*
D13*
X204500000Y-50125000D03*
D10*
X201960000Y-55205000D03*
X207040000Y-55205000D03*
G04 #@! TD*
G04 #@! TO.C,SW20*
X207660000Y-72395000D03*
D11*
X206990869Y-73138145D02*
X208329131Y-71651855D01*
D10*
X201340000Y-72605000D03*
D11*
X201999613Y-73547025D02*
X200680387Y-71662975D01*
D12*
X199420000Y-69125000D03*
X209580000Y-69125000D03*
D13*
X204500000Y-69125000D03*
D10*
X201960000Y-74205000D03*
X207040000Y-74205000D03*
G04 #@! TD*
G04 #@! TO.C,SW21*
X207660000Y-91395000D03*
D11*
X206990869Y-92138145D02*
X208329131Y-90651855D01*
D10*
X201340000Y-91605000D03*
D11*
X201999613Y-92547025D02*
X200680387Y-90662975D01*
D12*
X199420000Y-88125000D03*
X209580000Y-88125000D03*
D13*
X204500000Y-88125000D03*
D10*
X201960000Y-93205000D03*
X207040000Y-93205000D03*
G04 #@! TD*
G04 #@! TO.C,SW22*
X219965343Y-132886907D03*
D11*
X218990973Y-133111858D02*
X220939713Y-132661956D01*
D14*
X214667851Y-129433926D03*
D12*
X215091125Y-125482010D03*
X223413709Y-131309546D03*
D13*
X219252417Y-128395778D03*
D10*
X214258003Y-131100186D03*
X218419295Y-134013955D03*
G04 #@! TD*
D15*
G04 #@! TO.C,P1*
X120048933Y-44991389D03*
X119556529Y-45078213D03*
X120541337Y-44904565D03*
X121526144Y-44730917D03*
X122018548Y-44644093D03*
X122510952Y-44557269D03*
X119064125Y-45165037D03*
X121033740Y-44817741D03*
X120232976Y-46207912D03*
X120725380Y-46121088D03*
X121710187Y-45947440D03*
X122694995Y-45773792D03*
X119248168Y-46381560D03*
X122202591Y-45860616D03*
X121217784Y-46034264D03*
X119740572Y-46294736D03*
D16*
X120637414Y-45507034D03*
D17*
G36*
X120851861Y-44707651D02*
X121112333Y-46184863D01*
X120422967Y-46306417D01*
X120162495Y-44829205D01*
X120851861Y-44707651D01*
X120851861Y-44707651D01*
G37*
D16*
X121622222Y-45333386D03*
D17*
G36*
X121836669Y-44534003D02*
X122097141Y-46011215D01*
X121407775Y-46132769D01*
X121147303Y-44655557D01*
X121836669Y-44534003D01*
X121836669Y-44534003D01*
G37*
D18*
X124035001Y-44907948D03*
D17*
G36*
X124397169Y-44082518D02*
X124657641Y-45559730D01*
X123672833Y-45733378D01*
X123412361Y-44256166D01*
X124397169Y-44082518D01*
X124397169Y-44082518D01*
G37*
D16*
X122607029Y-45159738D03*
D17*
G36*
X122821476Y-44360355D02*
X123081948Y-45837567D01*
X122392582Y-45959121D01*
X122132110Y-44481909D01*
X122821476Y-44360355D01*
X122821476Y-44360355D01*
G37*
D16*
X119160202Y-45767506D03*
D17*
G36*
X119374649Y-44968123D02*
X119635121Y-46445335D01*
X118945755Y-46566889D01*
X118685283Y-45089677D01*
X119374649Y-44968123D01*
X119374649Y-44968123D01*
G37*
D16*
X122114626Y-45246562D03*
D17*
G36*
X122329073Y-44447179D02*
X122589545Y-45924391D01*
X121900179Y-46045945D01*
X121639707Y-44568733D01*
X122329073Y-44447179D01*
X122329073Y-44447179D01*
G37*
D16*
X121129818Y-45420210D03*
D17*
G36*
X121344265Y-44620827D02*
X121604737Y-46098039D01*
X120915371Y-46219593D01*
X120654899Y-44742381D01*
X121344265Y-44620827D01*
X121344265Y-44620827D01*
G37*
D16*
X120145010Y-45593858D03*
D17*
G36*
X120359457Y-44794475D02*
X120619929Y-46271687D01*
X119930563Y-46393241D01*
X119670091Y-44916029D01*
X120359457Y-44794475D01*
X120359457Y-44794475D01*
G37*
D16*
X119652606Y-45680682D03*
D17*
G36*
X119867053Y-44881299D02*
X120127525Y-46358511D01*
X119438159Y-46480065D01*
X119177687Y-45002853D01*
X119867053Y-44881299D01*
X119867053Y-44881299D01*
G37*
D18*
X123296395Y-45038184D03*
D17*
G36*
X123658563Y-44212754D02*
X123919035Y-45689966D01*
X122934227Y-45863614D01*
X122673755Y-44386402D01*
X123658563Y-44212754D01*
X123658563Y-44212754D01*
G37*
D18*
X117732231Y-46019296D03*
D17*
G36*
X118094399Y-45193866D02*
X118354871Y-46671078D01*
X117370063Y-46844726D01*
X117109591Y-45367514D01*
X118094399Y-45193866D01*
X118094399Y-45193866D01*
G37*
D18*
X118470837Y-45889060D03*
D17*
G36*
X118833005Y-45063630D02*
X119093477Y-46540842D01*
X118108669Y-46714490D01*
X117848197Y-45237278D01*
X118833005Y-45063630D01*
X118833005Y-45063630D01*
G37*
D19*
X125387597Y-38901824D03*
D20*
X125487445Y-39468088D02*
X125287749Y-38335560D01*
D19*
X114406991Y-40838003D03*
D20*
X114506839Y-41404267D02*
X114307143Y-40271739D01*
D19*
X115205773Y-45368118D03*
D20*
X115305621Y-45934382D02*
X115105925Y-44801854D01*
D19*
X126186379Y-43431941D03*
D20*
X126286227Y-43998205D02*
X126086531Y-42865677D01*
D18*
X124368267Y-43630672D03*
X116982209Y-44933033D03*
G04 #@! TD*
D21*
G04 #@! TO.C,J1*
X158270000Y-68040000D03*
X158270000Y-65500000D03*
X155730000Y-68040000D03*
X155730000Y-65500000D03*
X158270000Y-62960000D03*
D22*
X155730000Y-62960000D03*
G04 #@! TD*
D23*
G04 #@! TO.C,SW1*
X192900000Y-108850000D03*
X192900000Y-115150000D03*
X189100000Y-115150000D03*
X189100000Y-108850000D03*
G04 #@! TD*
D24*
G04 #@! TO.C,C10*
X125700000Y-62250000D03*
X125700000Y-60350000D03*
G04 #@! TD*
G04 #@! TO.C,C11*
X127500000Y-62250000D03*
X127500000Y-60350000D03*
G04 #@! TD*
G04 #@! TO.C,R1*
X116300000Y-48550000D03*
X116300000Y-50450000D03*
G04 #@! TD*
G04 #@! TO.C,R2*
X114500000Y-48550000D03*
X114500000Y-50450000D03*
G04 #@! TD*
D25*
G04 #@! TO.C,R3*
X194950000Y-108500000D03*
X196850000Y-108500000D03*
G04 #@! TD*
D24*
G04 #@! TO.C,R4*
X118400000Y-59150000D03*
X118400000Y-57250000D03*
G04 #@! TD*
G04 #@! TO.C,R5*
X116600000Y-59150000D03*
X116600000Y-57250000D03*
G04 #@! TD*
D26*
G04 #@! TO.C,F1*
X121680000Y-58200000D03*
X121680000Y-54600000D03*
G04 #@! TD*
D27*
G04 #@! TO.C,D1*
X116640000Y-52700000D03*
X118560000Y-52700000D03*
X116640000Y-54900000D03*
D28*
X118360000Y-54900000D03*
G04 #@! TD*
D29*
G04 #@! TO.C,JP1*
X194250000Y-97400000D03*
X194250000Y-98700000D03*
G04 #@! TD*
G04 #@! TO.C,JP2*
X192000000Y-97400000D03*
X192000000Y-98700000D03*
G04 #@! TD*
G04 #@! TO.C,JP3*
X197500000Y-98750000D03*
X197500000Y-97450000D03*
G04 #@! TD*
G04 #@! TO.C,JP4*
X197500000Y-101650000D03*
X197500000Y-102950000D03*
G04 #@! TD*
G04 #@! TO.C,JP5*
X194250000Y-101600000D03*
X194250000Y-102900000D03*
G04 #@! TD*
G04 #@! TO.C,JP6*
X192000000Y-102900000D03*
X192000000Y-101600000D03*
G04 #@! TD*
D30*
G04 #@! TO.C,U2*
X107100000Y-46625000D03*
X107100000Y-48375000D03*
X111900000Y-48375000D03*
X111900000Y-46625000D03*
G04 #@! TD*
G04 #@! TO.C,U3*
X111900000Y-67375000D03*
X111900000Y-65625000D03*
X107100000Y-65625000D03*
X107100000Y-67375000D03*
G04 #@! TD*
G04 #@! TO.C,U4*
X107100000Y-84625000D03*
X107100000Y-86375000D03*
X111900000Y-86375000D03*
X111900000Y-84625000D03*
G04 #@! TD*
G04 #@! TO.C,U5*
X126100000Y-46625000D03*
X126100000Y-48375000D03*
X130900000Y-48375000D03*
X130900000Y-46625000D03*
G04 #@! TD*
G04 #@! TO.C,U6*
X130900000Y-67375000D03*
X130900000Y-65625000D03*
X126100000Y-65625000D03*
X126100000Y-67375000D03*
G04 #@! TD*
G04 #@! TO.C,U7*
X126100000Y-84625000D03*
X126100000Y-86375000D03*
X130900000Y-86375000D03*
X130900000Y-84625000D03*
G04 #@! TD*
G04 #@! TO.C,U8*
X145100000Y-41875000D03*
X145100000Y-43625000D03*
X149900000Y-43625000D03*
X149900000Y-41875000D03*
G04 #@! TD*
G04 #@! TO.C,U9*
X149900000Y-62625000D03*
X149900000Y-60875000D03*
X145100000Y-60875000D03*
X145100000Y-62625000D03*
G04 #@! TD*
G04 #@! TO.C,U10*
X145100000Y-79875000D03*
X145100000Y-81625000D03*
X149900000Y-81625000D03*
X149900000Y-79875000D03*
G04 #@! TD*
G04 #@! TO.C,U11*
X164100000Y-39500000D03*
X164100000Y-41250000D03*
X168900000Y-41250000D03*
X168900000Y-39500000D03*
G04 #@! TD*
G04 #@! TO.C,U12*
X168900000Y-60250000D03*
X168900000Y-58500000D03*
X164100000Y-58500000D03*
X164100000Y-60250000D03*
G04 #@! TD*
G04 #@! TO.C,U13*
X164100000Y-77500000D03*
X164100000Y-79250000D03*
X168900000Y-79250000D03*
X168900000Y-77500000D03*
G04 #@! TD*
G04 #@! TO.C,U14*
X183150000Y-108500000D03*
X183150000Y-106750000D03*
X178350000Y-106750000D03*
X178350000Y-108500000D03*
G04 #@! TD*
G04 #@! TO.C,U15*
X183100000Y-41875000D03*
X183100000Y-43625000D03*
X187900000Y-43625000D03*
X187900000Y-41875000D03*
G04 #@! TD*
G04 #@! TO.C,U16*
X187900000Y-62625000D03*
X187900000Y-60875000D03*
X183100000Y-60875000D03*
X183100000Y-62625000D03*
G04 #@! TD*
G04 #@! TO.C,U17*
X183100000Y-79875000D03*
X183100000Y-81625000D03*
X187900000Y-81625000D03*
X187900000Y-79875000D03*
G04 #@! TD*
D31*
G04 #@! TO.C,U18*
X205270927Y-112044207D03*
D17*
G36*
X204123828Y-112461536D02*
X204486175Y-111109240D01*
X206418026Y-111626878D01*
X206055679Y-112979174D01*
X204123828Y-112461536D01*
X204123828Y-112461536D01*
G37*
D31*
X205723860Y-110353837D03*
D17*
G36*
X204576761Y-110771166D02*
X204939108Y-109418870D01*
X206870959Y-109936508D01*
X206508612Y-111288804D01*
X204576761Y-110771166D01*
X204576761Y-110771166D01*
G37*
D31*
X201087416Y-109111506D03*
D17*
G36*
X199940317Y-109528835D02*
X200302664Y-108176539D01*
X202234515Y-108694177D01*
X201872168Y-110046473D01*
X199940317Y-109528835D01*
X199940317Y-109528835D01*
G37*
D31*
X200634483Y-110801876D03*
D17*
G36*
X199487384Y-111219205D02*
X199849731Y-109866909D01*
X201781582Y-110384547D01*
X201419235Y-111736843D01*
X199487384Y-111219205D01*
X199487384Y-111219205D01*
G37*
G04 #@! TD*
D30*
G04 #@! TO.C,U19*
X202100000Y-44250000D03*
X202100000Y-46000000D03*
X206900000Y-46000000D03*
X206900000Y-44250000D03*
G04 #@! TD*
G04 #@! TO.C,U20*
X206900000Y-65000000D03*
X206900000Y-63250000D03*
X202100000Y-63250000D03*
X202100000Y-65000000D03*
G04 #@! TD*
G04 #@! TO.C,U21*
X202100000Y-82250000D03*
X202100000Y-84000000D03*
X206900000Y-84000000D03*
X206900000Y-82250000D03*
G04 #@! TD*
D31*
G04 #@! TO.C,U22*
X223584385Y-126393359D03*
D17*
G36*
X222363729Y-126393189D02*
X223166736Y-125246376D01*
X224805041Y-126393529D01*
X224002034Y-127540342D01*
X222363729Y-126393189D01*
X222363729Y-126393189D01*
G37*
D31*
X224588144Y-124959843D03*
D17*
G36*
X223367488Y-124959673D02*
X224170495Y-123812860D01*
X225808800Y-124960013D01*
X225005793Y-126106826D01*
X223367488Y-124959673D01*
X223367488Y-124959673D01*
G37*
D31*
X220656214Y-122206676D03*
D17*
G36*
X219435558Y-122206506D02*
X220238565Y-121059693D01*
X221876870Y-122206846D01*
X221073863Y-123353659D01*
X219435558Y-122206506D01*
X219435558Y-122206506D01*
G37*
D31*
X219652456Y-123640192D03*
D17*
G36*
X218431800Y-123640022D02*
X219234807Y-122493209D01*
X220873112Y-123640362D01*
X220070105Y-124787175D01*
X218431800Y-123640022D01*
X218431800Y-123640022D01*
G37*
G04 #@! TD*
D32*
G04 #@! TO.C,REF\002A\002A*
X195000000Y-77437500D03*
G04 #@! TD*
G04 #@! TO.C,REF\002A\002A*
X195000000Y-58437500D03*
G04 #@! TD*
G04 #@! TO.C,REF\002A\002A*
X157000000Y-56062500D03*
G04 #@! TD*
G04 #@! TO.C,REF\002A\002A*
X157000000Y-75062500D03*
G04 #@! TD*
G04 #@! TO.C,REF\002A\002A*
X119000000Y-81000000D03*
G04 #@! TD*
D33*
G04 #@! TO.C,D2*
X123300000Y-61575000D03*
X123300000Y-58225000D03*
G04 #@! TD*
G04 #@! TO.C,D3*
X114300000Y-57625000D03*
X114300000Y-60975000D03*
G04 #@! TD*
G04 #@! TO.C,D4*
X116000000Y-74325000D03*
X116000000Y-77675000D03*
G04 #@! TD*
G04 #@! TO.C,D5*
X116000000Y-93325000D03*
X116000000Y-96675000D03*
G04 #@! TD*
G04 #@! TO.C,D6*
X134700000Y-55025000D03*
X134700000Y-58375000D03*
G04 #@! TD*
G04 #@! TO.C,D7*
X134800000Y-74325000D03*
X134800000Y-77675000D03*
G04 #@! TD*
G04 #@! TO.C,D8*
X135000000Y-93325000D03*
X135000000Y-96675000D03*
G04 #@! TD*
G04 #@! TO.C,D9*
X154000000Y-50825000D03*
X154000000Y-54175000D03*
G04 #@! TD*
G04 #@! TO.C,D10*
X153800000Y-72975000D03*
X153800000Y-69625000D03*
G04 #@! TD*
G04 #@! TO.C,D11*
X153600000Y-91875000D03*
X153600000Y-88525000D03*
G04 #@! TD*
G04 #@! TO.C,D12*
X173000000Y-51675000D03*
X173000000Y-48325000D03*
G04 #@! TD*
G04 #@! TO.C,D13*
X172750000Y-70675000D03*
X172750000Y-67325000D03*
G04 #@! TD*
G04 #@! TO.C,D14*
X173000000Y-88675000D03*
X173000000Y-85325000D03*
G04 #@! TD*
G04 #@! TO.C,D15*
X186750000Y-115325000D03*
X186750000Y-118675000D03*
G04 #@! TD*
G04 #@! TO.C,D16*
X191700000Y-50525000D03*
X191700000Y-53875000D03*
G04 #@! TD*
G04 #@! TO.C,D17*
X191900000Y-72975000D03*
X191900000Y-69625000D03*
G04 #@! TD*
G04 #@! TO.C,D18*
X191750000Y-90875000D03*
X191750000Y-87525000D03*
G04 #@! TD*
G04 #@! TO.C,D19*
X207250000Y-123925000D03*
X207250000Y-120575000D03*
G04 #@! TD*
G04 #@! TO.C,D20*
X198300000Y-56275000D03*
X198300000Y-52925000D03*
G04 #@! TD*
G04 #@! TO.C,D21*
X198500000Y-71825000D03*
X198500000Y-75175000D03*
G04 #@! TD*
G04 #@! TO.C,D22*
X198250000Y-93175000D03*
X198250000Y-89825000D03*
G04 #@! TD*
G04 #@! TO.C,D23*
X209700000Y-120625000D03*
X209700000Y-123975000D03*
G04 #@! TD*
D34*
G04 #@! TO.C,J2*
X210750000Y-96500000D03*
X210750000Y-104850000D03*
X204500000Y-104850000D03*
X208000000Y-96500000D03*
X201800000Y-104850000D03*
X202950000Y-96500000D03*
G04 #@! TD*
D32*
G04 #@! TO.C,REF\002A\002A*
X119000000Y-62000000D03*
G04 #@! TD*
M02*
