  0
SECTION
  2
HEADER
  9
$ACADVER
  1
AC1027
  9
$ACADMAINTVER
 70
   105
  9
$DWGCODEPAGE
  3
ANSI_932
  9
$REQUIREDVERSIONS
160
                 0
  9
$LASTSAVEDBY
  1
abe
  9
$INSBASE
 10
0.0
 20
0.0
 30
0.0
  9
$EXTMIN
 10
-2.000007699979747
 20
-44.01602003440345
 30
0.0
  9
$EXTMAX
 10
134.8931454256874
 20
68.89910299101996
 30
0.0
  9
$LIMMIN
 10
0.0
 20
0.0
  9
$LIMMAX
 10
420.0
 20
297.0
  9
$ORTHOMODE
 70
     1
  9
$REGENMODE
 70
     1
  9
$FILLMODE
 70
     1
  9
$QTEXTMODE
 70
     0
  9
$MIRRTEXT
 70
     0
  9
$LTSCALE
 40
1.0
  9
$ATTMODE
 70
     1
  9
$TEXTSIZE
 40
2.5
  9
$TRACEWID
 40
1.0
  9
$TEXTSTYLE
  7
Standard
  9
$CLAYER
  8
0
  9
$CELTYPE
  6
ByLayer
  9
$CECOLOR
 62
   256
  9
$CELTSCALE
 40
1.0
  9
$DISPSILH
 70
     0
  9
$DIMSCALE
 40
1.0
  9
$DIMASZ
 40
2.5
  9
$DIMEXO
 40
0.625
  9
$DIMDLI
 40
3.75
  9
$DIMRND
 40
0.0
  9
$DIMDLE
 40
0.0
  9
$DIMEXE
 40
1.25
  9
$DIMTP
 40
0.0
  9
$DIMTM
 40
0.0
  9
$DIMTXT
 40
2.5
  9
$DIMCEN
 40
2.5
  9
$DIMTSZ
 40
0.0
  9
$DIMTOL
 70
     0
  9
$DIMLIM
 70
     0
  9
$DIMTIH
 70
     0
  9
$DIMTOH
 70
     0
  9
$DIMSE1
 70
     0
  9
$DIMSE2
 70
     0
  9
$DIMTAD
 70
     1
  9
$DIMZIN
 70
     8
  9
$DIMBLK
  1

  9
$DIMASO
 70
     1
  9
$DIMSHO
 70
     1
  9
$DIMPOST
  1

  9
$DIMAPOST
  1

  9
$DIMALT
 70
     0
  9
$DIMALTD
 70
     3
  9
$DIMALTF
 40
0.03937007874016
  9
$DIMLFAC
 40
1.0
  9
$DIMTOFL
 70
     1
  9
$DIMTVP
 40
0.0
  9
$DIMTIX
 70
     0
  9
$DIMSOXD
 70
     0
  9
$DIMSAH
 70
     0
  9
$DIMBLK1
  1

  9
$DIMBLK2
  1

  9
$DIMSTYLE
  2
ISO-25
  9
$DIMCLRD
 70
     0
  9
$DIMCLRE
 70
     0
  9
$DIMCLRT
 70
     0
  9
$DIMTFAC
 40
1.0
  9
$DIMGAP
 40
0.625
  9
$DIMJUST
 70
     0
  9
$DIMSD1
 70
     0
  9
$DIMSD2
 70
     0
  9
$DIMTOLJ
 70
     0
  9
$DIMTZIN
 70
     8
  9
$DIMALTZ
 70
     0
  9
$DIMALTTZ
 70
     0
  9
$DIMUPT
 70
     0
  9
$DIMDEC
 70
     2
  9
$DIMTDEC
 70
     2
  9
$DIMALTU
 70
     2
  9
$DIMALTTD
 70
     3
  9
$DIMTXSTY
  7
Standard
  9
$DIMAUNIT
 70
     0
  9
$DIMADEC
 70
     0
  9
$DIMALTRND
 40
0.0
  9
$DIMAZIN
 70
     0
  9
$DIMDSEP
 70
    44
  9
$DIMATFIT
 70
     3
  9
$DIMFRAC
 70
     0
  9
$DIMLDRBLK
  1

  9
$DIMLUNIT
 70
     2
  9
$DIMLWD
 70
    -2
  9
$DIMLWE
 70
    -2
  9
$DIMTMOVE
 70
     0
  9
$DIMFXL
 40
1.0
  9
$DIMFXLON
 70
     0
  9
$DIMJOGANG
 40
0.7853981633974483
  9
$DIMTFILL
 70
     0
  9
$DIMTFILLCLR
 70
     0
  9
$DIMARCSYM
 70
     0
  9
$DIMLTYPE
  6

  9
$DIMLTEX1
  6

  9
$DIMLTEX2
  6

  9
$DIMTXTDIRECTION
 70
     0
  9
$LUNITS
 70
     2
  9
$LUPREC
 70
     3
  9
$SKETCHINC
 40
1.0
  9
$FILLETRAD
 40
0.25
  9
$AUNITS
 70
     0
  9
$AUPREC
 70
     0
  9
$MENU
  1
.
  9
$ELEVATION
 40
0.0
  9
$PELEVATION
 40
0.0
  9
$THICKNESS
 40
0.0
  9
$LIMCHECK
 70
     0
  9
$CHAMFERA
 40
10.0
  9
$CHAMFERB
 40
10.0
  9
$CHAMFERC
 40
20.0
  9
$CHAMFERD
 40
0.0
  9
$SKPOLY
 70
     0
  9
$TDCREATE
 40
2455023.012359514
  9
$TDUCREATE
 40
2455022.637359514
  9
$TDUPDATE
 40
2458499.909276678
  9
$TDUUPDATE
 40
2458499.534276678
  9
$TDINDWG
 40
0.0
  9
$TDUSRTIMER
 40
0.0
  9
$USRTIMER
 70
     1
  9
$ANGBASE
 50
0.0
  9
$ANGDIR
 70
     0
  9
$PDMODE
 70
     0
  9
$PDSIZE
 40
0.0
  9
$PLINEWID
 40
0.0
  9
$SPLFRAME
 70
     0
  9
$SPLINETYPE
 70
     6
  9
$SPLINESEGS
 70
     8
  9
$HANDSEED
  5
81
  9
$SURFTAB1
 70
     6
  9
$SURFTAB2
 70
     6
  9
$SURFTYPE
 70
     6
  9
$SURFU
 70
     6
  9
$SURFV
 70
     6
  9
$UCSBASE
  2

  9
$UCSNAME
  2

  9
$UCSORG
 10
0.0
 20
0.0
 30
0.0
  9
$UCSXDIR
 10
1.0
 20
0.0
 30
0.0
  9
$UCSYDIR
 10
0.0
 20
1.0
 30
0.0
  9
$UCSORTHOREF
  2

  9
$UCSORTHOVIEW
 70
     0
  9
$UCSORGTOP
 10
0.0
 20
0.0
 30
0.0
  9
$UCSORGBOTTOM
 10
0.0
 20
0.0
 30
0.0
  9
$UCSORGLEFT
 10
0.0
 20
0.0
 30
0.0
  9
$UCSORGRIGHT
 10
0.0
 20
0.0
 30
0.0
  9
$UCSORGFRONT
 10
0.0
 20
0.0
 30
0.0
  9
$UCSORGBACK
 10
0.0
 20
0.0
 30
0.0
  9
$PUCSBASE
  2

  9
$PUCSNAME
  2

  9
$PUCSORG
 10
0.0
 20
0.0
 30
0.0
  9
$PUCSXDIR
 10
1.0
 20
0.0
 30
0.0
  9
$PUCSYDIR
 10
0.0
 20
1.0
 30
0.0
  9
$PUCSORTHOREF
  2

  9
$PUCSORTHOVIEW
 70
     0
  9
$PUCSORGTOP
 10
0.0
 20
0.0
 30
0.0
  9
$PUCSORGBOTTOM
 10
0.0
 20
0.0
 30
0.0
  9
$PUCSORGLEFT
 10
0.0
 20
0.0
 30
0.0
  9
$PUCSORGRIGHT
 10
0.0
 20
0.0
 30
0.0
  9
$PUCSORGFRONT
 10
0.0
 20
0.0
 30
0.0
  9
$PUCSORGBACK
 10
0.0
 20
0.0
 30
0.0
  9
$USERI1
 70
     0
  9
$USERI2
 70
     0
  9
$USERI3
 70
     0
  9
$USERI4
 70
     0
  9
$USERI5
 70
     0
  9
$USERR1
 40
0.0
  9
$USERR2
 40
0.0
  9
$USERR3
 40
0.0
  9
$USERR4
 40
0.0
  9
$USERR5
 40
0.0
  9
$WORLDVIEW
 70
     1
  9
$SHADEDGE
 70
     3
  9
$SHADEDIF
 70
    70
  9
$TILEMODE
 70
     1
  9
$MAXACTVP
 70
    64
  9
$PINSBASE
 10
0.0
 20
0.0
 30
0.0
  9
$PLIMCHECK
 70
     0
  9
$PEXTMIN
 10
40.5
 20
25.69999999999999
 30
0.0
  9
$PEXTMAX
 10
364.5
 20
231.3
 30
0.0
  9
$PLIMMIN
 10
-7.5
 20
-20.0
  9
$PLIMMAX
 10
412.5
 20
277.0
  9
$UNITMODE
 70
     0
  9
$VISRETAIN
 70
     1
  9
$PLINEGEN
 70
     0
  9
$PSLTSCALE
 70
     1
  9
$TREEDEPTH
 70
  3020
  9
$CMLSTYLE
  2
Standard
  9
$CMLJUST
 70
     0
  9
$CMLSCALE
 40
20.0
  9
$PROXYGRAPHICS
 70
     1
  9
$MEASUREMENT
 70
     1
  9
$CELWEIGHT
370
    -1
  9
$ENDCAPS
280
     0
  9
$JOINSTYLE
280
     0
  9
$LWDISPLAY
290
     0
  9
$INSUNITS
 70
     4
  9
$HYPERLINKBASE
  1

  9
$STYLESHEET
  1

  9
$XEDIT
290
     1
  9
$CEPSNTYPE
380
     0
  9
$PSTYLEMODE
290
     1
  9
$FINGERPRINTGUID
  2
{EC6BB858-51AA-46EC-B484-6C9CC7AB3E2E}
  9
$VERSIONGUID
  2
{FAEB1C32-E019-11D5-929B-00C0DF256EC4}
  9
$EXTNAMES
290
     1
  9
$PSVPSCALE
 40
0.0
  9
$OLESTARTUP
290
     0
  9
$SORTENTS
280
   127
  9
$INDEXCTL
280
     0
  9
$HIDETEXT
280
     1
  9
$XCLIPFRAME
280
     0
  9
$HALOGAP
280
     0
  9
$OBSCOLOR
 70
   257
  9
$OBSLTYPE
280
     0
  9
$INTERSECTIONDISPLAY
280
     0
  9
$INTERSECTIONCOLOR
 70
   257
  9
$DIMASSOC
280
     2
  9
$PROJECTNAME
  1

  9
$CAMERADISPLAY
290
     0
  9
$LENSLENGTH
 40
50.0
  9
$CAMERAHEIGHT
 40
0.0
  9
$STEPSPERSEC
 40
2.0
  9
$STEPSIZE
 40
6.0
  9
$3DDWFPREC
 40
2.0
  9
$PSOLWIDTH
 40
5.0
  9
$PSOLHEIGHT
 40
80.0
  9
$LOFTANG1
 40
1.570796326794897
  9
$LOFTANG2
 40
1.570796326794897
  9
$LOFTMAG1
 40
0.0
  9
$LOFTMAG2
 40
0.0
  9
$LOFTPARAM
 70
     7
  9
$LOFTNORMALS
280
     1
  9
$LATITUDE
 40
37.795
  9
$LONGITUDE
 40
-122.394
  9
$NORTHDIRECTION
 40
0.0
  9
$TIMEZONE
 70
 -8000
  9
$LIGHTGLYPHDISPLAY
280
     1
  9
$TILEMODELIGHTSYNCH
280
     1
  9
$SOLIDHIST
280
     1
  9
$SHOWHIST
280
     1
  9
$DWFFRAME
280
     2
  9
$DGNFRAME
280
     2
  9
$REALWORLDSCALE
290
     1
  9
$INTERFERECOLOR
 62
   256
  9
$CSHADOW
280
     0
  9
$SHADOWPLANELOCATION
 40
0.0
  0
ENDSEC
  0
SECTION
  2
CLASSES
  0
CLASS
  1
ACDBDICTIONARYWDFLT
  2
AcDbDictionaryWithDefault
  3
ObjectDBX Classes
 90
        0
 91
        9
280
     0
281
     0
  0
CLASS
  1
MATERIAL
  2
AcDbMaterial
  3
ObjectDBX Classes
 90
     1153
 91
        9
280
     0
281
     0
  0
CLASS
  1
VISUALSTYLE
  2
AcDbVisualStyle
  3
ObjectDBX Classes
 90
     4095
 91
        9
280
     0
281
     0
  0
CLASS
  1
SUN
  2
AcDbSun
  3
SCENEOE
 90
     1153
 91
        9
280
     0
281
     0
  0
CLASS
  1
SCALE
  2
AcDbScale
  3
ObjectDBX Classes
 90
     1153
 91
        9
280
     0
281
     0
  0
CLASS
  1
DICTIONARYVAR
  2
AcDbDictionaryVar
  3
ObjectDBX Classes
 90
        0
 91
        8
280
     0
281
     0
  0
ENDSEC
  0
SECTION
  2
TABLES
  0
TABLE
  2
VPORT
  5
20
330
0
100
AcDbSymbolTable
 70
     1
  0
VPORT
  5
24
330
20
100
AcDbSymbolTableRecord
100
AcDbViewportTableRecord
  2
*Active
 70
     0
 10
0.0
 20
0.0
 11
1.0
 21
1.0
 12
2339794.185875311
 22
-1703575.097249112
 13
0.0
 23
0.0
 14
1.0
 24
1.0
 15
10.0
 25
10.0
 16
0.0
 26
0.0
 36
1.0
 17
-2339727.739306448
 27
1703587.538147932
 37
0.0
 40
135.4966052504803
 41
1.212368261530436
 42
50.0
 43
0.0
 44
0.0
 50
0.0
 51
0.0
 71
    16
 72
  1000
 73
     1
 74
     3
 75
     0
 76
     0
 77
     0
 78
     2
281
     0
 65
     1
110
0.0
120
0.0
130
0.0
111
1.0
121
0.0
131
0.0
112
0.0
122
1.0
132
0.0
 79
     0
146
0.0
348
25
 60
     3
 61
     5
292
     1
282
     1
141
0.0
142
0.0
 63
   256
361
26
  0
ENDTAB
  0
TABLE
  2
LTYPE
  5
9
330
0
100
AcDbSymbolTable
 70
     1
  0
LTYPE
  5
A
330
9
100
AcDbSymbolTableRecord
100
AcDbLinetypeTableRecord
  2
ByBlock
 70
     0
  3

 72
    65
 73
     0
 40
0.0
  0
LTYPE
  5
B
330
9
100
AcDbSymbolTableRecord
100
AcDbLinetypeTableRecord
  2
ByLayer
 70
     0
  3

 72
    65
 73
     0
 40
0.0
  0
LTYPE
  5
8
330
9
100
AcDbSymbolTableRecord
100
AcDbLinetypeTableRecord
  2
Continuous
 70
     0
  3
Solid line
 72
    65
 73
     0
 40
0.0
  0
ENDTAB
  0
TABLE
  2
LAYER
  5
2
330
0
100
AcDbSymbolTable
 70
     2
  0
LAYER
  5
1
330
2
100
AcDbSymbolTableRecord
100
AcDbLayerTableRecord
  2
0
 70
     0
 62
     7
  6
Continuous
370
    -3
390
3
347
6
348
0
  0
ENDTAB
  0
TABLE
  2
STYLE
  5
D
330
0
100
AcDbSymbolTable
 70
     2
  0
STYLE
  5
C
330
D
100
AcDbSymbolTableRecord
100
AcDbTextStyleTableRecord
  2
Standard
 70
     0
 40
0.0
 41
1.0
 50
0.0
 71
     0
 42
2.5
  3
arial.ttf
  4

1001
ACAD
1000
Arial
1071
        0
  0
ENDTAB
  0
TABLE
  2
VIEW
  5
1E
330
0
100
AcDbSymbolTable
 70
     0
  0
ENDTAB
  0
TABLE
  2
UCS
  5
1F
330
0
100
AcDbSymbolTable
 70
     0
  0
ENDTAB
  0
TABLE
  2
APPID
  5
F
330
0
100
AcDbSymbolTable
 70
     3
  0
APPID
  5
E
330
F
100
AcDbSymbolTableRecord
100
AcDbRegAppTableRecord
  2
ACAD
 70
     0
  0
ENDTAB
  0
TABLE
  2
DIMSTYLE
  5
11
330
0
100
AcDbSymbolTable
 70
     2
100
AcDbDimStyleTable
  0
DIMSTYLE
105
10
330
11
100
AcDbSymbolTableRecord
100
AcDbDimStyleTableRecord
  2
ISO-25
 70
     0
 41
2.5
 42
0.625
 43
3.75
 44
1.25
 73
     0
 74
     0
 77
     1
 78
     8
140
2.5
141
2.5
143
0.03937007874016
147
0.625
171
     3
172
     1
178
     0
271
     2
272
     2
274
     3
278
    44
283
     0
284
     8
340
C
  0
ENDTAB
  0
TABLE
  2
BLOCK_RECORD
  5
14
330
0
100
AcDbSymbolTable
 70
     8
  0
BLOCK_RECORD
  5
15
330
14
100
AcDbSymbolTableRecord
100
AcDbBlockTableRecord
  2
*Model_Space
340
18
 70
     0
280
     1
281
     0
  0
BLOCK_RECORD
  5
1A
330
14
100
AcDbSymbolTableRecord
100
AcDbBlockTableRecord
  2
*Paper_Space
340
1D
 70
     0
280
     1
281
     0
  0
BLOCK_RECORD
  5
71
330
14
100
AcDbSymbolTableRecord
100
AcDbBlockTableRecord
  2
*Paper_Space0
340
74
 70
     0
280
     1
281
     0
  0
ENDTAB
  0
ENDSEC
  0
SECTION
  2
BLOCKS
  0
BLOCK
  5
16
330
15
100
AcDbEntity
  8
0
100
AcDbBlockBegin
  2
*Model_Space
 70
     0
 10
0.0
 20
0.0
 30
0.0
  3
*Model_Space
  1

  0
ENDBLK
  5
17
330
15
100
AcDbEntity
  8
0
100
AcDbBlockEnd
  0
BLOCK
  5
1B
330
1A
100
AcDbEntity
 67
     1
  8
0
100
AcDbBlockBegin
  2
*Paper_Space
 70
     0
 10
0.0
 20
0.0
 30
0.0
  3
*Paper_Space
  1

  0
ENDBLK
  5
1C
330
1A
100
AcDbEntity
 67
     1
  8
0
100
AcDbBlockEnd
  0
BLOCK
  5
72
330
71
100
AcDbEntity
  8
0
100
AcDbBlockBegin
  2
*Paper_Space0
 70
     0
 10
0.0
 20
0.0
 30
0.0
  3
*Paper_Space0
  1

  0
VIEWPORT
  5
75
330
71
100
AcDbEntity
  8
0
100
AcDbViewport
 10
0.0
 20
0.0
 30
0.0
 40
607.8947368421047
 41
311.8499999999997
 68
     1
 69
     1
 12
239.4303853398235
 22
106.2408371742014
 13
0.0
 23
0.0
 14
0.5
 24
0.5
 15
0.0
 25
0.0
 16
0.0
 26
0.0
 36
1.0
 17
0.0
 27
0.0
 37
0.0
 42
50.0
 43
0.0
 44
0.0
 45
311.8499999999997
 50
0.0
 51
0.0
 72
   100
 90
   557168
  1

281
     0
 71
     1
 74
     0
110
0.0
120
0.0
130
0.0
111
1.0
121
0.0
131
0.0
112
0.0
122
1.0
132
0.0
 79
     0
146
0.0
170
     0
 61
     5
348
25
292
     1
282
     1
141
0.0
142
0.0
 63
   256
361
76
  0
VIEWPORT
  5
77
102
{ACAD_XDICTIONARY
360
78
102
}
330
71
100
AcDbEntity
  8
0
100
AcDbViewport
 10
100.8449475622384
 20
140.6304155851299
 30
0.0
 40
173.1976142231945
 41
227.4193081881908
 68
     2
 69
     2
 12
76.63241683786674
 22
-24.62999565571043
 13
0.0
 23
0.0
 14
0.5
 24
0.5
 15
0.0
 25
0.0
 16
0.0
 26
0.0
 36
1.0
 17
0.0
 27
0.0
 37
0.0
 42
50.0
 43
0.0
 44
0.0
 45
235.9447669326484
 50
0.0
 51
0.0
 72
   100
 90
   557152
  1

281
     0
 71
     1
 74
     0
110
0.0
120
0.0
130
0.0
111
1.0
121
0.0
131
0.0
112
0.0
122
1.0
132
0.0
 79
     0
146
0.0
170
     0
 61
     5
348
25
292
     1
282
     1
141
0.0
142
0.0
 63
   256
  0
ENDBLK
  5
73
330
71
100
AcDbEntity
  8
0
100
AcDbBlockEnd
  0
ENDSEC
  0
SECTION
  2
ENTITIES
  0
CIRCLE
  5
52
330
15
100
AcDbEntity
  8
0
100
AcDbCircle
 10
19.0
 20
19.0
 30
0.0
 40
1.0
  0
CIRCLE
  5
53
330
15
100
AcDbEntity
  8
0
100
AcDbCircle
 10
57.0
 20
24.9375
 30
0.0
 40
1.0
  0
CIRCLE
  5
54
330
15
100
AcDbEntity
  8
0
100
AcDbCircle
 10
95.00000000000001
 20
22.56250000000001
 30
0.0
 40
1.0
  0
CIRCLE
  5
55
330
15
100
AcDbEntity
  8
0
100
AcDbCircle
 10
56.99999999999999
 20
43.9375
 30
0.0
 40
1.0
  0
CIRCLE
  5
56
330
15
100
AcDbEntity
  8
0
100
AcDbCircle
 10
95.00000000000001
 20
41.56250000000001
 30
0.0
 40
1.0
  0
LINE
  5
57
330
15
100
AcDbEntity
  8
0
100
AcDbLine
 10
134.7111564822568
 20
-26.40439529186773
 30
0.0
 11
122.6243975567088
 21
-43.5933026923972
 31
0.0
  0
ARC
  5
58
330
15
100
AcDbEntity
  8
0
100
AcDbCircle
 10
52.46541555727261
 20
-20.0
 30
0.0
 40
18.0
100
AcDbArc
 50
0.0
 51
90.0
  0
LINE
  5
59
330
15
100
AcDbEntity
  8
0
100
AcDbLine
 10
70.4654155572726
 20
-22.79453818416747
 30
0.0
 11
70.4654155572726
 21
-19.99999999999999
 31
0.0
  0
LINE
  5
5A
330
15
100
AcDbEntity
  8
0
100
AcDbLine
 10
-1.00000000000002
 20
-2.000000000000005
 30
0.0
 11
52.46541555727261
 21
-1.999999999999998
 31
0.0
  0
LINE
  5
5B
330
15
100
AcDbEntity
  8
0
100
AcDbLine
 10
-2.000000000000021
 20
-1.000000000000005
 30
0.0
 11
-2.000000000000006
 21
58.74423264731203
 31
0.0
  0
ARC
  5
5C
330
15
100
AcDbEntity
  8
0
100
AcDbCircle
 10
121.8207807745126
 20
-43.04079403593002
 30
0.0
 40
0.9752259984734339
100
AcDbArc
 50
233.4429029718046
 51
325.4904061678295
  0
ARC
  5
5D
330
15
100
AcDbEntity
  8
0
100
AcDbCircle
 10
71.46526766856823
 20
-22.79543956049812
 30
0.0
 40
0.9998525175952734
100
AcDbArc
 50
179.9483473156428
 51
266.628690095667
  0
SPLINE
  5
5E
330
15
100
AcDbEntity
  8
0
100
AcDbSpline
210
0.0
220
0.0
230
1.0
 70
     8
 71
     3
 72
    28
 73
    24
 74
     0
 42
0.000000001
 43
0.0000000001
 40
1.934065115595662
 40
1.934065115595662
 40
1.934065115595662
 40
1.934065115595662
 40
2.890517771678089
 40
5.640182760286296
 40
8.257717295739898
 40
10.75187851541194
 40
13.13143588976435
 40
15.40514192637846
 40
17.58169615805727
 40
19.66970341684269
 40
21.67762853699124
 40
23.61375086401679
 40
25.48612299975397
 40
27.30253872403733
 40
29.0705146581571
 40
30.79728880496907
 40
34.15453326080771
 40
37.42365208332135
 40
40.62585715396967
 40
43.77054751422581
 40
46.86436570958116
 40
52.91598039222411
 40
56.79419242487612
 40
56.79419242487612
 40
56.79419242487612
 40
56.79419242487612
 10
71.40646983058164
 20
-23.79356173297488
 30
0.0
 10
71.72466954687756
 20
-23.81347727071393
 30
0.0
 10
72.9574291961021
 20
-23.89415981771916
 30
0.0
 10
75.05919902490714
 20
-24.05607192070311
 30
0.0
 10
77.66776644735481
 20
-24.30719829835109
 30
0.0
 10
80.14806384753899
 20
-24.59791347620173
 30
0.0
 10
82.50775772829924
 20
-24.92813923835411
 30
0.0
 10
84.75438739510984
 20
-25.29781117394904
 30
0.0
 10
86.89533895841282
 20
-25.70685930229472
 30
0.0
 10
88.93781737545082
 20
-26.15518074056225
 30
0.0
 10
90.88882644304975
 20
-26.64260550533398
 30
0.0
 10
92.75515983433283
 20
-27.16885552156029
 30
0.0
 10
94.54341016930469
 20
-27.7335071660601
 30
0.0
 10
96.25999313177635
 20
-28.33594055906848
 30
0.0
 10
97.91121018502511
 20
-28.97536338861226
 30
0.0
 10
100.0141843400147
 20
-29.86733142754578
 30
0.0
 10
102.5260614188508
 20
-31.07290804083445
 30
0.0
 10
105.3961378896882
 20
-32.65579319069823
 30
0.0
 10
108.1266418005183
 20
-34.33656214456943
 30
0.0
 10
110.7414997232718
 20
-36.08844671872423
 30
0.0
 10
114.0788086885668
 20
-38.4651939689268
 30
0.0
 10
117.544518628756
 20
-41.07974354343164
 30
0.0
 10
120.1959179339236
 20
-43.06177190730935
 30
0.0
 10
121.2399131938319
 20
-43.82415768189057
 30
0.0
  0
ARC
  5
5F
330
15
100
AcDbEntity
  8
0
100
AcDbCircle
 10
-1.000000000000021
 20
-1.000000000000005
 30
0.0
 40
0.9999999999999997
100
AcDbArc
 50
180.0
 51
270.0000000000001
  0
ARC
  5
60
330
15
100
AcDbEntity
  8
0
100
AcDbCircle
 10
-1.011019427643985
 20
58.74813525157464
 30
0.0
 40
0.9889882723357614
100
AcDbArc
 50
101.4165048455227
 51
180.2260930082954
  0
ARC
  5
61
330
15
100
AcDbEntity
  8
0
100
AcDbCircle
 10
115.0087674680435
 20
61.12442721555891
 30
0.0
 40
0.9912373046699086
100
AcDbArc
 50
359.8222000374578
 51
77.78644216850856
  0
CIRCLE
  5
62
330
15
100
AcDbEntity
  8
0
100
AcDbCircle
 10
19.0
 20
38.0
 30
0.0
 40
1.0
  0
LINE
  5
63
330
15
100
AcDbEntity
  8
0
100
AcDbLine
 10
120.2642356364895
 20
-15.06535283519446
 30
0.0
 11
134.4667218620384
 21
-25.01004075164336
 31
0.0
  0
LINE
  5
64
330
15
100
AcDbEntity
  8
0
100
AcDbLine
 10
116.0
 20
-6.873832392304542
 30
0.0
 11
116.0
 21
61.12135121808971
 31
0.0
  0
ARC
  5
65
330
15
100
AcDbEntity
  8
0
100
AcDbCircle
 10
126.0
 20
-6.873832392304542
 30
0.0
 40
10.0
100
AcDbArc
 50
180.0
 51
235.0000000000001
  0
ARC
  5
66
330
15
100
AcDbEntity
  8
0
100
AcDbCircle
 10
133.8931454256874
 20
-25.82919279593235
 30
0.0
 40
1.0
100
AcDbArc
 50
324.8861856576974
 51
55.00000000000004
  0
SPLINE
  5
67
330
15
100
AcDbEntity
  8
0
100
AcDbSpline
210
0.0
220
0.0
230
1.0
 70
  1064
 71
     3
 72
    20
 73
    16
 74
    14
 42
0.000000001
 43
0.0000000001
 44
0.0000000001
 12
0.9794371019379342
 22
0.2017497542685504
 32
0.0
 13
0.9767248196576259
 23
-0.2144962159684364
 33
0.0
 40
0.0
 40
0.0
 40
0.0
 40
0.0
 40
14.78172957903718
 40
29.53712403291664
 40
36.90451261649849
 40
44.26467159950526
 40
51.61739666841458
 40
58.96246029854807
 40
66.29990008406429
 40
73.62949073707833
 40
80.95253791235416
 40
88.28144168853777
 40
95.6263546172136
 40
102.9864242547554
 40
117.7497971624731
 40
117.7497971624731
 40
117.7497971624731
 40
117.7497971624731
 10
-1.206779482340416
 20
59.71755559580253
 30
0.0
 10
3.619145311167057
 20
60.71162569921417
 30
0.0
 10
13.26421821776002
 20
62.68915062435948
 30
0.0
 10
25.36159978234268
 20
64.93131737110394
 30
0.0
 10
35.07130124425188
 20
66.45389539892355
 30
0.0
 10
42.36785707617349
 20
67.42498667521846
 30
0.0
 10
49.68176509875951
 20
68.18983640953905
 30
0.0
 10
57.00986436661684
 20
68.7113823327023
 30
0.0
 10
64.3453367856124
 20
68.95148173419182
 30
0.0
 10
71.67750800083829
 20
68.87376184193424
 30
0.0
 10
78.99508565450279
 20
68.43860407176135
 30
0.0
 10
86.28462917287447
 20
67.62242825113665
 30
0.0
 10
93.54552690523569
 20
66.50677278376706
 30
0.0
 10
103.205078787051
 20
64.71736897811141
 30
0.0
 10
110.4118854949537
 20
63.14879125889111
 30
0.0
 10
115.2184697418966
 20
62.09322871767899
 30
0.0
 11
-1.206779482340416
 21
59.71755559580253
 31
0.0
 11
13.28214988770866
 21
62.64508955077418
 31
0.0
 11
27.7984682436953
 21
65.2904944115133
 31
0.0
 11
35.07782108628184
 21
66.4260280898423
 31
0.0
 11
42.37444155151663
 21
67.39105142710014
 31
0.0
 11
49.68793185019852
 21
68.14961954536857
 31
0.0
 11
57.01491484778575
 21
68.66467282783287
 31
0.0
 11
64.34862614931214
 21
68.89855560176136
 31
0.0
 11
71.6777303810975
 21
68.81411449579636
 31
0.0
 11
78.9876226994594
 21
68.37537285739269
 31
0.0
 11
86.27252681063565
 21
67.57349839619222
 31
0.0
 11
93.534151823651
 21
66.47052600298417
 31
0.0
 11
100.7733254902451
 21
65.14199685601146
 31
0.0
 11
115.2184697418966
 21
62.09322871767899
 31
0.0
  0
SPLINE
  5
68
330
15
100
AcDbEntity
  8
0
100
AcDbSpline
210
0.0
220
0.0
230
1.0
 70
  1064
 71
     3
 72
    20
 73
    16
 74
    14
 42
0.000000001
 43
0.0000000001
 44
0.0000000001
 12
0.9794371019379343
 22
0.2017497542685507
 32
0.0
 13
0.9767248196576259
 23
-0.2144962159684367
 33
0.0
 40
0.0
 40
0.0
 40
0.0
 40
0.0
 40
14.63433608901786
 40
29.30337725935313
 40
36.65160923746132
 40
44.00955418440596
 40
51.3775499249266
 40
58.75598140682737
 40
66.14489402195056
 40
73.5446517619777
 40
80.95357018066109
 40
88.35434532399762
 40
95.73304925041815
 40
103.0911511726334
 40
117.7497638550724
 40
117.7497638550724
 40
117.7497638550724
 40
117.7497638550724
 10
-1.206779482340416
 20
59.71755559580252
 30
0.0
 10
3.57102442693071
 20
60.70171349908343
 30
0.0
 10
13.13975073825858
 20
62.66366761893646
 30
0.0
 10
25.15343931116755
 20
64.89443862390964
 30
0.0
 10
34.82661316294535
 20
66.41804474610551
 30
0.0
 10
42.12028257921298
 20
67.3953017895177
 30
0.0
 10
49.44878242296171
 20
68.16930501187746
 30
0.0
 10
56.80959948072277
 20
68.70124458638094
 30
0.0
 10
64.19649466451202
 20
68.95050978415095
 30
0.0
 10
71.59795285040893
 20
68.8777383444529
 30
0.0
 10
78.99161228518878
 20
68.44028738423822
 30
0.0
 10
86.34446248074363
 20
67.61506939648218
 30
0.0
 10
93.63902658368242
 20
66.4908945700757
 30
0.0
 10
103.2740008380216
 20
64.70239023191706
 30
0.0
 10
110.4459927990012
 20
63.14130103492236
 30
0.0
 10
115.2184697418966
 20
62.09322871767899
 30
0.0
 11
-1.206779482340416
 21
59.71755559580252
 31
0.0
 11
13.13748511245796
 21
62.61684274969819
 31
0.0
 11
27.5678794718649
 21
65.252082300287
 31
0.0
 11
34.82752459225676
 21
66.38965248716012
 31
0.0
 11
42.12109508905291
 21
67.3608287072834
 31
0.0
 11
49.44898977559614
 21
68.12850096499615
 31
0.0
 11
56.80869458875665
 21
68.65385436628559
 31
0.0
 11
64.19361305028005
 21
68.89677194608892
 31
0.0
 11
71.59294144379895
 21
68.81706036627389
 31
0.0
 11
78.98867700573183
 21
68.37528255711281
 31
0.0
 11
86.34483821961064
 21
67.56388566430822
 31
0.0
 11
93.6393898447067
 21
66.45267541301365
 31
0.0
 11
100.8761376898489
 21
65.12183187467507
 31
0.0
 11
115.2184697418966
 21
62.09322871767899
 31
0.0
  0
SPLINE
  5
69
330
15
100
AcDbEntity
  8
0
100
AcDbSpline
210
0.0
220
0.0
230
1.0
 70
  1064
 71
     3
 72
    20
 73
    16
 74
    14
 42
0.000000001
 43
0.0000000001
 44
0.0000000001
 12
0.9794371019379343
 22
0.2017497542685507
 32
0.0
 13
0.9767248196576259
 23
-0.2144962159684367
 33
0.0
 40
0.0
 40
0.0
 40
0.0
 40
0.0
 40
14.63433608901786
 40
29.30337725935313
 40
36.65160923746132
 40
44.00955418440596
 40
51.3775499249266
 40
58.75598140682737
 40
66.14489402195056
 40
73.5446517619777
 40
80.95357018066109
 40
88.35434532399762
 40
95.73304925041815
 40
103.0911511726334
 40
117.7497638550724
 40
117.7497638550724
 40
117.7497638550724
 40
117.7497638550724
 10
-1.206779482340416
 20
59.71755559580252
 30
0.0
 10
3.57102442693071
 20
60.70171349908343
 30
0.0
 10
13.13975073825858
 20
62.66366761893646
 30
0.0
 10
25.15343931116755
 20
64.89443862390964
 30
0.0
 10
34.82661316294535
 20
66.41804474610551
 30
0.0
 10
42.12028257921298
 20
67.3953017895177
 30
0.0
 10
49.44878242296171
 20
68.16930501187746
 30
0.0
 10
56.80959948072277
 20
68.70124458638094
 30
0.0
 10
64.19649466451202
 20
68.95050978415095
 30
0.0
 10
71.59795285040893
 20
68.8777383444529
 30
0.0
 10
78.99161228518878
 20
68.44028738423822
 30
0.0
 10
86.34446248074363
 20
67.61506939648218
 30
0.0
 10
93.63902658368242
 20
66.4908945700757
 30
0.0
 10
103.2740008380216
 20
64.70239023191706
 30
0.0
 10
110.4459927990012
 20
63.14130103492236
 30
0.0
 10
115.2184697418966
 20
62.09322871767899
 30
0.0
 11
-1.206779482340416
 21
59.71755559580252
 31
0.0
 11
13.13748511245796
 21
62.61684274969819
 31
0.0
 11
27.5678794718649
 21
65.252082300287
 31
0.0
 11
34.82752459225676
 21
66.38965248716012
 31
0.0
 11
42.12109508905291
 21
67.3608287072834
 31
0.0
 11
49.44898977559614
 21
68.12850096499615
 31
0.0
 11
56.80869458875665
 21
68.65385436628559
 31
0.0
 11
64.19361305028005
 21
68.89677194608892
 31
0.0
 11
71.59294144379895
 21
68.81706036627389
 31
0.0
 11
78.98867700573183
 21
68.37528255711281
 31
0.0
 11
86.34483821961064
 21
67.56388566430822
 31
0.0
 11
93.6393898447067
 21
66.45267541301365
 31
0.0
 11
100.8761376898489
 21
65.12183187467507
 31
0.0
 11
115.2184697418966
 21
62.09322871767899
 31
0.0
  0
CIRCLE
  5
6A
330
15
100
AcDbEntity
  8
0
100
AcDbCircle
 10
9.499979959627131
 20
58.3287385350264
 30
0.0
 40
1.0
  0
CIRCLE
  5
6B
330
15
100
AcDbEntity
  8
0
100
AcDbCircle
 10
104.5
 20
60.81864202080911
 30
0.0
 40
1.0
  0
CIRCLE
  5
6C
330
15
100
AcDbEntity
  8
0
100
AcDbCircle
 10
115.4164364281559
 20
-15.25465467420119
 30
0.0
 40
1.0
  0
CIRCLE
  5
6D
330
15
100
AcDbEntity
  8
0
100
AcDbCircle
 10
90.10215818606522
 20
-22.84434828925964
 30
0.0
 40
1.0
  0
CIRCLE
  5
6E
330
15
100
AcDbEntity
  8
0
100
AcDbCircle
 10
40.5
 20
1.5
 30
0.0
 40
1.0
  0
CIRCLE
  5
6F
330
15
100
AcDbEntity
  8
0
100
AcDbCircle
 10
57.0
 20
65.15908104624276
 30
0.0
 40
1.0
  0
CIRCLE
  5
70
330
15
100
AcDbEntity
  8
0
100
AcDbCircle
 10
91.0
 20
-11.99999999999999
 30
0.0
 40
1.5
  0
VIEWPORT
  5
4D
330
1A
100
AcDbEntity
 67
     1
  8
0
100
AcDbViewport
 10
0.0
 20
0.0
 30
0.0
 40
611.542105263158
 41
311.85
 68
     1
 69
     1
 12
186.4667763157895
 22
129.2598684210526
 13
0.0
 23
0.0
 14
0.5
 24
0.5
 15
0.0
 25
0.0
 16
0.0
 26
0.0
 36
1.0
 17
0.0
 27
0.0
 37
0.0
 42
50.0
 43
0.0
 44
0.0
 45
311.85
 50
0.0
 51
0.0
 72
   100
 90
   557168
  1

281
     0
 71
     1
 74
     0
110
0.0
120
0.0
130
0.0
111
1.0
121
0.0
131
0.0
112
0.0
122
1.0
132
0.0
 79
     0
146
0.0
170
     0
 61
     5
348
25
292
     1
282
     1
141
0.0
142
0.0
 63
   256
361
4E
  0
VIEWPORT
  5
4F
102
{ACAD_XDICTIONARY
360
50
102
}
330
1A
100
AcDbEntity
 67
     1
  8
0
100
AcDbViewport
 10
202.5
 20
128.5
 30
0.0
 40
324.0
 41
205.6
 68
     2
 69
     2
 12
9.5
 22
9.5
 13
0.0
 23
0.0
 14
0.5
 24
0.5
 15
0.0
 25
0.0
 16
0.0
 26
0.0
 36
1.0
 17
0.0
 27
0.0
 37
0.0
 42
50.0
 43
0.0
 44
0.0
 45
19.38
 50
0.0
 51
0.0
 72
   100
 90
   557152
  1

281
     0
 71
     1
 74
     0
110
0.0
120
0.0
130
0.0
111
1.0
121
0.0
131
0.0
112
0.0
122
1.0
132
0.0
 79
     0
146
0.0
170
     0
 61
     5
348
25
292
     1
282
     1
141
0.0
142
0.0
 63
   256
  0
ENDSEC
  0
SECTION
  2
OBJECTS
  0
DICTIONARY
  5
5
330
0
100
AcDbDictionary
281
     1
  3
ACAD_DETAILVIEWSTYLE
350
7F
  3
ACAD_GROUP
350
21
  3
ACAD_LAYOUT
350
19
  3
ACAD_MATERIAL
350
7
  3
ACAD_MLEADERSTYLE
350
7D
  3
ACAD_MLINESTYLE
350
13
  3
ACAD_PLOTSETTINGS
350
22
  3
ACAD_PLOTSTYLENAME
350
4
  3
ACAD_SCALELIST
350
28
  3
ACAD_SECTIONVIEWSTYLE
350
80
  3
ACAD_TABLESTYLE
350
7C
  3
ACAD_VISUALSTYLE
350
23
  3
AcDbVariableDictionary
350
7A
  0
SUN
  5
26
330
24
100
AcDbSun
 90
        1
290
     0
 63
     7
421
 16777215
 40
1.0
291
     1
 91
  2455826
 92
 54000000
292
     0
 70
     2
 71
   256
280
     1
  0
SUN
  5
76
330
75
100
AcDbSun
 90
        1
290
     0
 63
     7
421
 16777215
 40
1.0
291
     1
 91
  2455826
 92
 54000000
292
     0
 70
     2
 71
   256
280
     1
  0
DICTIONARY
  5
78
330
77
100
AcDbDictionary
280
     1
281
     1
  3
ASDK_XREC_ANNOTATION_SCALE_INFO
360
79
  0
SUN
  5
4E
330
4D
100
AcDbSun
 90
        1
290
     0
 63
     7
421
 16777215
 40
1.0
291
     1
 91
  2455826
 92
 54000000
292
     0
 70
     2
 71
   256
280
     1
  0
DICTIONARY
  5
50
330
4F
100
AcDbDictionary
280
     1
281
     1
  3
ASDK_XREC_ANNOTATION_SCALE_INFO
360
51
  0
DICTIONARY
  5
7F
102
{ACAD_REACTORS
330
5
102
}
330
5
100
AcDbDictionary
281
     1
  0
DICTIONARY
  5
21
102
{ACAD_REACTORS
330
5
102
}
330
5
100
AcDbDictionary
281
     1
  0
DICTIONARY
  5
19
102
{ACAD_REACTORS
330
5
102
}
330
5
100
AcDbDictionary
281
     1
  3
Model
350
18
  3
Sheet1
350
1D
  3
Sheet2
350
74
  0
DICTIONARY
  5
7
102
{ACAD_REACTORS
330
5
102
}
330
5
100
AcDbDictionary
281
     1
  3
ByBlock
350
4C
  3
ByLayer
350
4B
  3
Global
350
6
  0
DICTIONARY
  5
7D
102
{ACAD_REACTORS
330
5
102
}
330
5
100
AcDbDictionary
281
     1
  0
DICTIONARY
  5
13
102
{ACAD_REACTORS
330
5
102
}
330
5
100
AcDbDictionary
281
     1
  3
Standard
350
12
  0
DICTIONARY
  5
22
102
{ACAD_REACTORS
330
5
102
}
330
5
100
AcDbDictionary
281
     1
  0
ACDBDICTIONARYWDFLT
  5
4
102
{ACAD_REACTORS
330
5
102
}
330
5
100
AcDbDictionary
281
     1
  3
Normal
350
3
100
AcDbDictionaryWithDefault
340
3
  0
DICTIONARY
  5
28
102
{ACAD_REACTORS
330
5
102
}
330
5
100
AcDbDictionary
281
     1
  3
*A1
350
4A
  0
DICTIONARY
  5
80
102
{ACAD_REACTORS
330
5
102
}
330
5
100
AcDbDictionary
281
     1
  0
DICTIONARY
  5
7C
102
{ACAD_REACTORS
330
5
102
}
330
5
100
AcDbDictionary
281
     1
  0
DICTIONARY
  5
23
102
{ACAD_REACTORS
330
5
102
}
330
5
100
AcDbDictionary
281
     1
  3
2dWireframe
350
25
  0
DICTIONARY
  5
7A
102
{ACAD_REACTORS
330
5
102
}
330
5
100
AcDbDictionary
281
     1
  3
CANNOSCALE
350
7B
  3
XCLIPFRAME
350
7E
  0
XRECORD
  5
79
102
{ACAD_REACTORS
330
78
102
}
330
78
100
AcDbXrecord
280
     1
 90
        1
340
4A
  0
XRECORD
  5
51
102
{ACAD_REACTORS
330
50
102
}
330
50
100
AcDbXrecord
280
     1
 90
        1
340
4A
  0
LAYOUT
  5
18
102
{ACAD_REACTORS
330
19
330
19
102
}
330
19
100
AcDbPlotSettings
  1

  2
none_device
  4
ISO_A3_(420.00_x_297.00_MM)
  6

 40
7.5
 41
20.0
 42
7.5
 43
20.0
 44
420.0
 45
297.0
 46
20.78282828282826
 47
0.0
 48
0.0
 49
0.0
140
0.0
141
0.0
142
1.0
143
1.155642023346303
 70
  1204
 72
     1
 73
     0
 74
     1
  7
monochrome.ctb
 75
     0
 76
     0
 77
     2
 78
   300
147
0.8653198653198654
148
-134.1869158878504
149
0.0
100
AcDbLayout
  1
Model
 70
     1
 71
     0
 10
0.0
 20
0.0
 11
420.0
 21
297.0
 12
0.0
 22
0.0
 32
0.0
 14
-2.000007699979747
 24
-44.01602003440345
 34
0.0
 15
134.8931454256874
 25
68.89910299101996
 35
0.0
146
0.0
 13
0.0
 23
0.0
 33
0.0
 16
1.0
 26
0.0
 36
0.0
 17
0.0
 27
1.0
 37
0.0
 76
     0
330
15
331
24
  0
LAYOUT
  5
1D
102
{ACAD_REACTORS
330
19
330
19
102
}
330
19
100
AcDbPlotSettings
  1

  2
none_device
  4
ISO_A3_(420.00_x_297.00_MM)
  6

 40
7.5
 41
20.0
 42
7.5
 43
20.0
 44
420.0
 45
297.0
 46
0.0
 47
0.0
 48
0.0
 49
0.0
140
0.0
141
0.0
142
1.0
143
1.0
 70
   688
 72
     1
 73
     0
 74
     5
  7

 75
    16
 76
     0
 77
     2
 78
   300
147
1.0
148
0.0
149
0.0
100
AcDbLayout
  1
Sheet1
 70
     1
 71
     1
 10
0.0
 20
0.0
 11
412.5
 21
277.0
 12
0.0
 22
0.0
 32
0.0
 14
40.5
 24
25.69999999999999
 34
0.0
 15
364.5
 25
231.3
 35
0.0
146
0.0
 13
0.0
 23
0.0
 33
0.0
 16
1.0
 26
0.0
 36
0.0
 17
0.0
 27
1.0
 37
0.0
 76
     0
330
1A
331
4D
  0
LAYOUT
  5
74
102
{ACAD_REACTORS
330
19
330
19
102
}
330
19
100
AcDbPlotSettings
  1

  2
none_device
  4
ISO_A3_(420.00_x_297.00_MM)
  6

 40
7.5
 41
20.0
 42
7.5
 43
20.0
 44
420.0
 45
297.0
 46
0.0
 47
0.0
 48
0.0
 49
0.0
140
0.0
141
0.0
142
1.0
143
1.0
 70
   688
 72
     1
 73
     0
 74
     5
  7

 75
    16
 76
     0
 77
     2
 78
   300
147
1.0
148
0.0
149
0.0
100
AcDbLayout
  1
Sheet2
 70
     1
 71
     2
 10
0.0
 20
0.0
 11
412.5
 21
277.0
 12
0.0
 22
0.0
 32
0.0
 14
14.24614045064118
 24
26.92076149103445
 34
0.0
 15
187.4437546738357
 25
254.3400696792253
 35
0.0
146
0.0
 13
0.0
 23
0.0
 33
0.0
 16
1.0
 26
0.0
 36
0.0
 17
0.0
 27
1.0
 37
0.0
 76
     0
330
71
331
75
  0
MATERIAL
  5
4C
102
{ACAD_REACTORS
330
7
102
}
330
7
100
AcDbMaterial
  1
ByBlock
 72
     1
 94
      127
  0
MATERIAL
  5
4B
102
{ACAD_REACTORS
330
7
102
}
330
7
100
AcDbMaterial
  1
ByLayer
 72
     1
 94
      127
  0
MATERIAL
  5
6
102
{ACAD_REACTORS
330
7
102
}
330
7
100
AcDbMaterial
  1
Global
 72
     1
 94
      127
  0
MLINESTYLE
  5
12
102
{ACAD_REACTORS
330
13
102
}
330
13
100
AcDbMlineStyle
  2
Standard
 70
     0
  3

 62
   256
 51
90.0
 52
90.0
 71
     2
 49
0.5
 62
   256
  6
BYLAYER
 49
-0.5
 62
   256
  6
BYLAYER
  0
ACDBPLACEHOLDER
  5
3
102
{ACAD_REACTORS
330
4
102
}
330
4
  0
SCALE
  5
4A
102
{ACAD_REACTORS
330
28
102
}
330
28
100
AcDbScale
 70
     0
300
1:1
140
1.0
141
1.0
290
     1
  0
VISUALSTYLE
  5
25
102
{ACAD_REACTORS
330
23
102
}
330
23
100
AcDbVisualStyle
  2
2dWireframe
 70
     4
177
     3
291
     0
 70
    58
 90
        0
176
     1
 90
        2
176
     1
 90
        0
176
     1
 90
        0
176
     1
 40
-0.6
176
     1
 40
-30.0
176
     1
 62
     7
420
 16777215
176
     1
 90
        1
176
     1
 90
        4
176
     1
 62
     7
176
     1
 62
   257
176
     1
 90
        1
176
     1
 90
        1
176
     1
 40
1.0
176
     1
 90
        0
176
     1
 62
   257
176
     1
 40
1.0
176
     1
 90
        1
176
     1
 90
        6
176
     1
 90
        2
176
     1
 62
     7
176
     1
 90
        5
176
     1
 90
        0
176
     1
 90
        0
176
     1
290
     0
176
     1
 90
        1
176
     1
 40
0.0
176
     1
 90
        0
176
     1
290
     1
176
     1
290
     1
176
     1
290
     0
176
     1
290
     0
176
     1
290
     0
176
     1
290
     0
176
     1
290
     0
176
     1
290
     0
176
     1
290
     0
176
     1
 90
       50
176
     1
 40
0.0
176
     1
 40
1.0
176
     1
 90
        0
176
     1
 62
    18
420
        0
176
     1
 90
       50
176
     1
 90
        3
176
     1
 62
     5
420
      255
176
     1
290
     0
176
     1
 90
       50
176
     1
 90
       50
176
     1
 90
       50
176
     1
290
     0
176
     1
 90
       50
176
     1
 62
   256
176
     0
 40
1.0
176
     0
 90
        2
176
     1
  1
strokes_ogs.tif
176
     1
290
     0
176
     1
 40
1.0
176
     1
 40
1.0
176
     1
  0
DICTIONARYVAR
  5
7B
102
{ACAD_REACTORS
330
7A
102
}
330
7A
100
DictionaryVariables
280
     0
  1
1:1
  0
DICTIONARYVAR
  5
7E
102
{ACAD_REACTORS
330
7A
102
}
330
7A
100
DictionaryVariables
280
     0
  1
0
  0
ENDSEC
  0
EOF
