G04 #@! TF.GenerationSoftware,KiCad,Pcbnew,(5.0.0)*
G04 #@! TF.CreationDate,2019-01-14T15:32:29+09:00*
G04 #@! TF.ProjectId,kp21,6B7032312E6B696361645F7063620000,rev?*
G04 #@! TF.SameCoordinates,Original*
G04 #@! TF.FileFunction,Legend,Top*
G04 #@! TF.FilePolarity,Positive*
%FSLAX46Y46*%
G04 Gerber Fmt 4.6, Leading zero omitted, Abs format (unit mm)*
G04 Created by KiCad (PCBNEW (5.0.0)) date 01/14/19 15:32:29*
%MOMM*%
%LPD*%
G01*
G04 APERTURE LIST*
%ADD10C,0.150000*%
%ADD11C,0.120000*%
G04 APERTURE END LIST*
D10*
X219154776Y-135985714D02*
X219309538Y-136652380D01*
X219630967Y-135985714D01*
X220452395Y-136652380D02*
X219880967Y-136652380D01*
X220166681Y-136652380D02*
X220291681Y-135652380D01*
X220178586Y-135795238D01*
X220071443Y-135890476D01*
X219970252Y-135938095D01*
X220892872Y-136557142D02*
X220934538Y-136604761D01*
X220880967Y-136652380D01*
X220839300Y-136604761D01*
X220892872Y-136557142D01*
X220880967Y-136652380D01*
X221880967Y-136652380D02*
X221309538Y-136652380D01*
X221595252Y-136652380D02*
X221720252Y-135652380D01*
X221607157Y-135795238D01*
X221500014Y-135890476D01*
X221398824Y-135938095D01*
D11*
X191000000Y-99450000D02*
X195250000Y-99450000D01*
X191000000Y-96650000D02*
X195250000Y-96650000D01*
X195250000Y-99450000D02*
X195250000Y-96650000D01*
X191000000Y-99450000D02*
X191000000Y-96650000D01*
X191000000Y-103650000D02*
X191000000Y-100850000D01*
X195250000Y-103650000D02*
X195250000Y-100850000D01*
X191000000Y-103650000D02*
X195250000Y-103650000D01*
X191000000Y-100850000D02*
X195250000Y-100850000D01*
D10*
X195990476Y-96204761D02*
X196133333Y-96252380D01*
X196371428Y-96252380D01*
X196466666Y-96204761D01*
X196514285Y-96157142D01*
X196561904Y-96061904D01*
X196561904Y-95966666D01*
X196514285Y-95871428D01*
X196466666Y-95823809D01*
X196371428Y-95776190D01*
X196180952Y-95728571D01*
X196085714Y-95680952D01*
X196038095Y-95633333D01*
X195990476Y-95538095D01*
X195990476Y-95442857D01*
X196038095Y-95347619D01*
X196085714Y-95300000D01*
X196180952Y-95252380D01*
X196419047Y-95252380D01*
X196561904Y-95300000D01*
X196990476Y-95728571D02*
X197323809Y-95728571D01*
X197466666Y-96252380D02*
X196990476Y-96252380D01*
X196990476Y-95252380D01*
X197466666Y-95252380D01*
X198466666Y-96252380D02*
X198133333Y-95776190D01*
X197895238Y-96252380D02*
X197895238Y-95252380D01*
X198276190Y-95252380D01*
X198371428Y-95300000D01*
X198419047Y-95347619D01*
X198466666Y-95442857D01*
X198466666Y-95585714D01*
X198419047Y-95680952D01*
X198371428Y-95728571D01*
X198276190Y-95776190D01*
X197895238Y-95776190D01*
X198895238Y-96252380D02*
X198895238Y-95252380D01*
X199323809Y-95966666D02*
X199800000Y-95966666D01*
X199228571Y-96252380D02*
X199561904Y-95252380D01*
X199895238Y-96252380D01*
X200704761Y-96252380D02*
X200228571Y-96252380D01*
X200228571Y-95252380D01*
X196500000Y-104904761D02*
X196642857Y-104952380D01*
X196880952Y-104952380D01*
X196976190Y-104904761D01*
X197023809Y-104857142D01*
X197071428Y-104761904D01*
X197071428Y-104666666D01*
X197023809Y-104571428D01*
X196976190Y-104523809D01*
X196880952Y-104476190D01*
X196690476Y-104428571D01*
X196595238Y-104380952D01*
X196547619Y-104333333D01*
X196500000Y-104238095D01*
X196500000Y-104142857D01*
X196547619Y-104047619D01*
X196595238Y-104000000D01*
X196690476Y-103952380D01*
X196928571Y-103952380D01*
X197071428Y-104000000D01*
X197976190Y-104952380D02*
X197500000Y-104952380D01*
X197500000Y-103952380D01*
X198261904Y-104666666D02*
X198738095Y-104666666D01*
X198166666Y-104952380D02*
X198500000Y-103952380D01*
X198833333Y-104952380D01*
X199023809Y-103952380D02*
X199357142Y-104952380D01*
X199690476Y-103952380D01*
X200023809Y-104428571D02*
X200357142Y-104428571D01*
X200500000Y-104952380D02*
X200023809Y-104952380D01*
X200023809Y-103952380D01*
X200500000Y-103952380D01*
X189928571Y-104952380D02*
X189928571Y-103952380D01*
X190261904Y-104666666D01*
X190595238Y-103952380D01*
X190595238Y-104952380D01*
X191023809Y-104666666D02*
X191500000Y-104666666D01*
X190928571Y-104952380D02*
X191261904Y-103952380D01*
X191595238Y-104952380D01*
X191880952Y-104904761D02*
X192023809Y-104952380D01*
X192261904Y-104952380D01*
X192357142Y-104904761D01*
X192404761Y-104857142D01*
X192452380Y-104761904D01*
X192452380Y-104666666D01*
X192404761Y-104571428D01*
X192357142Y-104523809D01*
X192261904Y-104476190D01*
X192071428Y-104428571D01*
X191976190Y-104380952D01*
X191928571Y-104333333D01*
X191880952Y-104238095D01*
X191880952Y-104142857D01*
X191928571Y-104047619D01*
X191976190Y-104000000D01*
X192071428Y-103952380D01*
X192309523Y-103952380D01*
X192452380Y-104000000D01*
X192738095Y-103952380D02*
X193309523Y-103952380D01*
X193023809Y-104952380D02*
X193023809Y-103952380D01*
X193642857Y-104428571D02*
X193976190Y-104428571D01*
X194119047Y-104952380D02*
X193642857Y-104952380D01*
X193642857Y-103952380D01*
X194119047Y-103952380D01*
X195119047Y-104952380D02*
X194785714Y-104476190D01*
X194547619Y-104952380D02*
X194547619Y-103952380D01*
X194928571Y-103952380D01*
X195023809Y-104000000D01*
X195071428Y-104047619D01*
X195119047Y-104142857D01*
X195119047Y-104285714D01*
X195071428Y-104380952D01*
X195023809Y-104428571D01*
X194928571Y-104476190D01*
X194547619Y-104476190D01*
X192123809Y-96152380D02*
X192123809Y-95152380D01*
X192552380Y-95247619D02*
X192600000Y-95200000D01*
X192695238Y-95152380D01*
X192933333Y-95152380D01*
X193028571Y-95200000D01*
X193076190Y-95247619D01*
X193123809Y-95342857D01*
X193123809Y-95438095D01*
X193076190Y-95580952D01*
X192504761Y-96152380D01*
X193123809Y-96152380D01*
X194123809Y-96057142D02*
X194076190Y-96104761D01*
X193933333Y-96152380D01*
X193838095Y-96152380D01*
X193695238Y-96104761D01*
X193600000Y-96009523D01*
X193552380Y-95914285D01*
X193504761Y-95723809D01*
X193504761Y-95580952D01*
X193552380Y-95390476D01*
X193600000Y-95295238D01*
X193695238Y-95200000D01*
X193838095Y-95152380D01*
X193933333Y-95152380D01*
X194076190Y-95200000D01*
X194123809Y-95247619D01*
G04 #@! TO.C,SW1*
X188400000Y-109400000D02*
X193600000Y-109400000D01*
X193600000Y-114600000D02*
X193600000Y-109400000D01*
X188400000Y-114600000D02*
X193600000Y-114600000D01*
X188400000Y-114600000D02*
X188400000Y-109400000D01*
G04 #@! TO.C,R6*
X189400000Y-94500000D02*
X188600000Y-94500000D01*
X188600000Y-93300000D02*
X189400000Y-93300000D01*
G04 #@! TO.C,R7*
X189400000Y-96300000D02*
X188600000Y-96300000D01*
X188600000Y-95100000D02*
X189400000Y-95100000D01*
G04 #@! TO.C,C1*
X172300000Y-105500000D02*
X172300000Y-106300000D01*
X171100000Y-106300000D02*
X171100000Y-105500000D01*
G04 #@! TO.C,C2*
X183700000Y-102600000D02*
X182900000Y-102600000D01*
X182900000Y-101400000D02*
X183700000Y-101400000D01*
G04 #@! TO.C,C3*
X178350000Y-88100000D02*
X178350000Y-88900000D01*
X177150000Y-88900000D02*
X177150000Y-88100000D01*
G04 #@! TO.C,C4*
X163850000Y-92900000D02*
X164650000Y-92900000D01*
X164650000Y-94100000D02*
X163850000Y-94100000D01*
G04 #@! TO.C,C5*
X164650000Y-99600000D02*
X163850000Y-99600000D01*
X163850000Y-98400000D02*
X164650000Y-98400000D01*
G04 #@! TO.C,C6*
X184200000Y-94600000D02*
X183400000Y-94600000D01*
X183400000Y-93400000D02*
X184200000Y-93400000D01*
G04 #@! TO.C,C7*
X183400000Y-99600000D02*
X184200000Y-99600000D01*
X184200000Y-100800000D02*
X183400000Y-100800000D01*
G04 #@! TO.C,C8*
X163850000Y-96150000D02*
X164650000Y-96150000D01*
X164650000Y-97350000D02*
X163850000Y-97350000D01*
G04 #@! TO.C,C9*
X174000000Y-104500000D02*
X174800000Y-104500000D01*
X174800000Y-105700000D02*
X174000000Y-105700000D01*
G04 #@! TO.C,C10*
X125100000Y-61700000D02*
X125100000Y-60900000D01*
X126300000Y-60900000D02*
X126300000Y-61700000D01*
G04 #@! TO.C,C11*
X126900000Y-61700000D02*
X126900000Y-60900000D01*
X128100000Y-60900000D02*
X128100000Y-61700000D01*
G04 #@! TO.C,R1*
X116900000Y-49100000D02*
X116900000Y-49900000D01*
X115700000Y-49900000D02*
X115700000Y-49100000D01*
G04 #@! TO.C,R2*
X115100000Y-49100000D02*
X115100000Y-49900000D01*
X113900000Y-49900000D02*
X113900000Y-49100000D01*
G04 #@! TO.C,R3*
X195500000Y-107900000D02*
X196300000Y-107900000D01*
X196300000Y-109100000D02*
X195500000Y-109100000D01*
G04 #@! TO.C,R4*
X117800000Y-58600000D02*
X117800000Y-57800000D01*
X119000000Y-57800000D02*
X119000000Y-58600000D01*
G04 #@! TO.C,R5*
X116000000Y-58600000D02*
X116000000Y-57800000D01*
X117200000Y-57800000D02*
X117200000Y-58600000D01*
G04 #@! TO.C,F1*
X122580000Y-58100000D02*
X122580000Y-54700000D01*
X120780000Y-58100000D02*
X120780000Y-54700000D01*
G04 #@! TO.C,D1*
X119050000Y-53150000D02*
X119050000Y-54450000D01*
X116150000Y-53150000D02*
X116150000Y-54450000D01*
X116150000Y-54450000D02*
X119050000Y-54450000D01*
X116150000Y-53150000D02*
X119050000Y-53150000D01*
D11*
G04 #@! TO.C,JP1*
X193250000Y-96650000D02*
X195250000Y-96650000D01*
X193250000Y-99450000D02*
X193250000Y-96650000D01*
X195250000Y-96650000D02*
X195250000Y-99450000D01*
X195250000Y-99450000D02*
X193250000Y-99450000D01*
G04 #@! TO.C,JP2*
X191000000Y-96650000D02*
X193000000Y-96650000D01*
X191000000Y-99450000D02*
X191000000Y-96650000D01*
X193000000Y-96650000D02*
X193000000Y-99450000D01*
X193000000Y-99450000D02*
X191000000Y-99450000D01*
G04 #@! TO.C,JP3*
X198500000Y-99500000D02*
X196500000Y-99500000D01*
X198500000Y-96700000D02*
X198500000Y-99500000D01*
X196500000Y-99500000D02*
X196500000Y-96700000D01*
X196500000Y-96700000D02*
X198500000Y-96700000D01*
G04 #@! TO.C,JP4*
X196500000Y-100900000D02*
X198500000Y-100900000D01*
X196500000Y-103700000D02*
X196500000Y-100900000D01*
X198500000Y-100900000D02*
X198500000Y-103700000D01*
X198500000Y-103700000D02*
X196500000Y-103700000D01*
G04 #@! TO.C,JP5*
X193250000Y-100850000D02*
X195250000Y-100850000D01*
X193250000Y-103650000D02*
X193250000Y-100850000D01*
X195250000Y-100850000D02*
X195250000Y-103650000D01*
X195250000Y-103650000D02*
X193250000Y-103650000D01*
G04 #@! TO.C,JP6*
X193000000Y-103650000D02*
X191000000Y-103650000D01*
X193000000Y-100850000D02*
X193000000Y-103650000D01*
X191000000Y-103650000D02*
X191000000Y-100850000D01*
X191000000Y-100850000D02*
X193000000Y-100850000D01*
D10*
G04 #@! TO.C,U2*
X107500000Y-45750000D02*
X106500000Y-45750000D01*
G04 #@! TO.C,U3*
X111500000Y-68250000D02*
X112500000Y-68250000D01*
G04 #@! TO.C,U4*
X107500000Y-83750000D02*
X106500000Y-83750000D01*
G04 #@! TO.C,U5*
X126500000Y-45750000D02*
X125500000Y-45750000D01*
G04 #@! TO.C,U6*
X130500000Y-68250000D02*
X131500000Y-68250000D01*
G04 #@! TO.C,U7*
X126500000Y-83750000D02*
X125500000Y-83750000D01*
G04 #@! TO.C,U8*
X145500000Y-41000000D02*
X144500000Y-41000000D01*
G04 #@! TO.C,U9*
X149500000Y-63500000D02*
X150500000Y-63500000D01*
G04 #@! TO.C,U10*
X145500000Y-79000000D02*
X144500000Y-79000000D01*
G04 #@! TO.C,U11*
X164500000Y-38625000D02*
X163500000Y-38625000D01*
G04 #@! TO.C,U12*
X168500000Y-61125000D02*
X169500000Y-61125000D01*
G04 #@! TO.C,U13*
X164500000Y-76625000D02*
X163500000Y-76625000D01*
G04 #@! TO.C,U14*
X182750000Y-109375000D02*
X183750000Y-109375000D01*
G04 #@! TO.C,U15*
X183500000Y-41000000D02*
X182500000Y-41000000D01*
G04 #@! TO.C,U16*
X187500000Y-63500000D02*
X188500000Y-63500000D01*
G04 #@! TO.C,U17*
X183500000Y-79000000D02*
X182500000Y-79000000D01*
G04 #@! TO.C,U18*
X204658090Y-112785865D02*
X205624016Y-113044684D01*
G04 #@! TO.C,U19*
X202500000Y-43375000D02*
X201500000Y-43375000D01*
G04 #@! TO.C,U20*
X206500000Y-65875000D02*
X207500000Y-65875000D01*
G04 #@! TO.C,U21*
X202500000Y-81375000D02*
X201500000Y-81375000D01*
G04 #@! TO.C,U22*
X222754845Y-126880686D02*
X223573997Y-127454263D01*
G04 #@! TO.C,D2*
X123300000Y-60200000D02*
X122700000Y-59500000D01*
X123900000Y-59500000D02*
X123300000Y-60200000D01*
X122700000Y-59500000D02*
X123900000Y-59500000D01*
X122700000Y-60300000D02*
X123900000Y-60300000D01*
X123300000Y-59050000D02*
X123300000Y-59500000D01*
X123300000Y-60750000D02*
X123300000Y-60300000D01*
G04 #@! TO.C,D3*
X114300000Y-60150000D02*
X114300000Y-59700000D01*
X114300000Y-58450000D02*
X114300000Y-58900000D01*
X113700000Y-59700000D02*
X114900000Y-59700000D01*
X113700000Y-58900000D02*
X114900000Y-58900000D01*
X114900000Y-58900000D02*
X114300000Y-59600000D01*
X114300000Y-59600000D02*
X113700000Y-58900000D01*
G04 #@! TO.C,D4*
X116000000Y-76850000D02*
X116000000Y-76400000D01*
X116000000Y-75150000D02*
X116000000Y-75600000D01*
X115400000Y-76400000D02*
X116600000Y-76400000D01*
X115400000Y-75600000D02*
X116600000Y-75600000D01*
X116600000Y-75600000D02*
X116000000Y-76300000D01*
X116000000Y-76300000D02*
X115400000Y-75600000D01*
G04 #@! TO.C,D5*
X116000000Y-95850000D02*
X116000000Y-95400000D01*
X116000000Y-94150000D02*
X116000000Y-94600000D01*
X115400000Y-95400000D02*
X116600000Y-95400000D01*
X115400000Y-94600000D02*
X116600000Y-94600000D01*
X116600000Y-94600000D02*
X116000000Y-95300000D01*
X116000000Y-95300000D02*
X115400000Y-94600000D01*
G04 #@! TO.C,D6*
X134700000Y-57550000D02*
X134700000Y-57100000D01*
X134700000Y-55850000D02*
X134700000Y-56300000D01*
X134100000Y-57100000D02*
X135300000Y-57100000D01*
X134100000Y-56300000D02*
X135300000Y-56300000D01*
X135300000Y-56300000D02*
X134700000Y-57000000D01*
X134700000Y-57000000D02*
X134100000Y-56300000D01*
G04 #@! TO.C,D7*
X134800000Y-76850000D02*
X134800000Y-76400000D01*
X134800000Y-75150000D02*
X134800000Y-75600000D01*
X134200000Y-76400000D02*
X135400000Y-76400000D01*
X134200000Y-75600000D02*
X135400000Y-75600000D01*
X135400000Y-75600000D02*
X134800000Y-76300000D01*
X134800000Y-76300000D02*
X134200000Y-75600000D01*
G04 #@! TO.C,D8*
X135000000Y-95850000D02*
X135000000Y-95400000D01*
X135000000Y-94150000D02*
X135000000Y-94600000D01*
X134400000Y-95400000D02*
X135600000Y-95400000D01*
X134400000Y-94600000D02*
X135600000Y-94600000D01*
X135600000Y-94600000D02*
X135000000Y-95300000D01*
X135000000Y-95300000D02*
X134400000Y-94600000D01*
G04 #@! TO.C,D9*
X154000000Y-53350000D02*
X154000000Y-52900000D01*
X154000000Y-51650000D02*
X154000000Y-52100000D01*
X153400000Y-52900000D02*
X154600000Y-52900000D01*
X153400000Y-52100000D02*
X154600000Y-52100000D01*
X154600000Y-52100000D02*
X154000000Y-52800000D01*
X154000000Y-52800000D02*
X153400000Y-52100000D01*
G04 #@! TO.C,D10*
X153800000Y-71600000D02*
X153200000Y-70900000D01*
X154400000Y-70900000D02*
X153800000Y-71600000D01*
X153200000Y-70900000D02*
X154400000Y-70900000D01*
X153200000Y-71700000D02*
X154400000Y-71700000D01*
X153800000Y-70450000D02*
X153800000Y-70900000D01*
X153800000Y-72150000D02*
X153800000Y-71700000D01*
G04 #@! TO.C,D11*
X153600000Y-90500000D02*
X153000000Y-89800000D01*
X154200000Y-89800000D02*
X153600000Y-90500000D01*
X153000000Y-89800000D02*
X154200000Y-89800000D01*
X153000000Y-90600000D02*
X154200000Y-90600000D01*
X153600000Y-89350000D02*
X153600000Y-89800000D01*
X153600000Y-91050000D02*
X153600000Y-90600000D01*
G04 #@! TO.C,D12*
X173000000Y-50300000D02*
X172400000Y-49600000D01*
X173600000Y-49600000D02*
X173000000Y-50300000D01*
X172400000Y-49600000D02*
X173600000Y-49600000D01*
X172400000Y-50400000D02*
X173600000Y-50400000D01*
X173000000Y-49150000D02*
X173000000Y-49600000D01*
X173000000Y-50850000D02*
X173000000Y-50400000D01*
G04 #@! TO.C,D13*
X172750000Y-69300000D02*
X172150000Y-68600000D01*
X173350000Y-68600000D02*
X172750000Y-69300000D01*
X172150000Y-68600000D02*
X173350000Y-68600000D01*
X172150000Y-69400000D02*
X173350000Y-69400000D01*
X172750000Y-68150000D02*
X172750000Y-68600000D01*
X172750000Y-69850000D02*
X172750000Y-69400000D01*
G04 #@! TO.C,D14*
X173000000Y-87300000D02*
X172400000Y-86600000D01*
X173600000Y-86600000D02*
X173000000Y-87300000D01*
X172400000Y-86600000D02*
X173600000Y-86600000D01*
X172400000Y-87400000D02*
X173600000Y-87400000D01*
X173000000Y-86150000D02*
X173000000Y-86600000D01*
X173000000Y-87850000D02*
X173000000Y-87400000D01*
G04 #@! TO.C,D15*
X186750000Y-117850000D02*
X186750000Y-117400000D01*
X186750000Y-116150000D02*
X186750000Y-116600000D01*
X186150000Y-117400000D02*
X187350000Y-117400000D01*
X186150000Y-116600000D02*
X187350000Y-116600000D01*
X187350000Y-116600000D02*
X186750000Y-117300000D01*
X186750000Y-117300000D02*
X186150000Y-116600000D01*
G04 #@! TO.C,D16*
X191700000Y-53050000D02*
X191700000Y-52600000D01*
X191700000Y-51350000D02*
X191700000Y-51800000D01*
X191100000Y-52600000D02*
X192300000Y-52600000D01*
X191100000Y-51800000D02*
X192300000Y-51800000D01*
X192300000Y-51800000D02*
X191700000Y-52500000D01*
X191700000Y-52500000D02*
X191100000Y-51800000D01*
G04 #@! TO.C,D17*
X191900000Y-71600000D02*
X191300000Y-70900000D01*
X192500000Y-70900000D02*
X191900000Y-71600000D01*
X191300000Y-70900000D02*
X192500000Y-70900000D01*
X191300000Y-71700000D02*
X192500000Y-71700000D01*
X191900000Y-70450000D02*
X191900000Y-70900000D01*
X191900000Y-72150000D02*
X191900000Y-71700000D01*
G04 #@! TO.C,D18*
X191750000Y-89500000D02*
X191150000Y-88800000D01*
X192350000Y-88800000D02*
X191750000Y-89500000D01*
X191150000Y-88800000D02*
X192350000Y-88800000D01*
X191150000Y-89600000D02*
X192350000Y-89600000D01*
X191750000Y-88350000D02*
X191750000Y-88800000D01*
X191750000Y-90050000D02*
X191750000Y-89600000D01*
G04 #@! TO.C,D19*
X207250000Y-122550000D02*
X206650000Y-121850000D01*
X207850000Y-121850000D02*
X207250000Y-122550000D01*
X206650000Y-121850000D02*
X207850000Y-121850000D01*
X206650000Y-122650000D02*
X207850000Y-122650000D01*
X207250000Y-121400000D02*
X207250000Y-121850000D01*
X207250000Y-123100000D02*
X207250000Y-122650000D01*
G04 #@! TO.C,D20*
X198300000Y-54900000D02*
X197700000Y-54200000D01*
X198900000Y-54200000D02*
X198300000Y-54900000D01*
X197700000Y-54200000D02*
X198900000Y-54200000D01*
X197700000Y-55000000D02*
X198900000Y-55000000D01*
X198300000Y-53750000D02*
X198300000Y-54200000D01*
X198300000Y-55450000D02*
X198300000Y-55000000D01*
G04 #@! TO.C,D21*
X198500000Y-74350000D02*
X198500000Y-73900000D01*
X198500000Y-72650000D02*
X198500000Y-73100000D01*
X197900000Y-73900000D02*
X199100000Y-73900000D01*
X197900000Y-73100000D02*
X199100000Y-73100000D01*
X199100000Y-73100000D02*
X198500000Y-73800000D01*
X198500000Y-73800000D02*
X197900000Y-73100000D01*
G04 #@! TO.C,D22*
X198250000Y-91800000D02*
X197650000Y-91100000D01*
X198850000Y-91100000D02*
X198250000Y-91800000D01*
X197650000Y-91100000D02*
X198850000Y-91100000D01*
X197650000Y-91900000D02*
X198850000Y-91900000D01*
X198250000Y-90650000D02*
X198250000Y-91100000D01*
X198250000Y-92350000D02*
X198250000Y-91900000D01*
G04 #@! TO.C,D23*
X209700000Y-123150000D02*
X209700000Y-122700000D01*
X209700000Y-121450000D02*
X209700000Y-121900000D01*
X209100000Y-122700000D02*
X210300000Y-122700000D01*
X209100000Y-121900000D02*
X210300000Y-121900000D01*
X210300000Y-121900000D02*
X209700000Y-122600000D01*
X209700000Y-122600000D02*
X209100000Y-121900000D01*
G04 #@! TO.C,U1*
X169400000Y-102175000D02*
X169400000Y-103450000D01*
X168825000Y-91825000D02*
X168825000Y-92500000D01*
X179175000Y-91825000D02*
X179175000Y-92500000D01*
X179175000Y-102175000D02*
X179175000Y-101500000D01*
X168825000Y-102175000D02*
X168825000Y-101500000D01*
X179175000Y-102175000D02*
X178500000Y-102175000D01*
X179175000Y-91825000D02*
X178500000Y-91825000D01*
X168825000Y-91825000D02*
X169500000Y-91825000D01*
X168825000Y-102175000D02*
X169400000Y-102175000D01*
X170250000Y-101000000D02*
G75*
G03X170250000Y-101000000I-250000J0D01*
G01*
G04 #@! TO.C,SW1*
X191504761Y-113333333D02*
X191552380Y-113190476D01*
X191552380Y-112952380D01*
X191504761Y-112857142D01*
X191457142Y-112809523D01*
X191361904Y-112761904D01*
X191266666Y-112761904D01*
X191171428Y-112809523D01*
X191123809Y-112857142D01*
X191076190Y-112952380D01*
X191028571Y-113142857D01*
X190980952Y-113238095D01*
X190933333Y-113285714D01*
X190838095Y-113333333D01*
X190742857Y-113333333D01*
X190647619Y-113285714D01*
X190600000Y-113238095D01*
X190552380Y-113142857D01*
X190552380Y-112904761D01*
X190600000Y-112761904D01*
X190552380Y-112428571D02*
X191552380Y-112190476D01*
X190838095Y-112000000D01*
X191552380Y-111809523D01*
X190552380Y-111571428D01*
X191552380Y-110666666D02*
X191552380Y-111238095D01*
X191552380Y-110952380D02*
X190552380Y-110952380D01*
X190695238Y-111047619D01*
X190790476Y-111142857D01*
X190838095Y-111238095D01*
G04 #@! TO.C,R6*
X189833333Y-92952380D02*
X189500000Y-92476190D01*
X189261904Y-92952380D02*
X189261904Y-91952380D01*
X189642857Y-91952380D01*
X189738095Y-92000000D01*
X189785714Y-92047619D01*
X189833333Y-92142857D01*
X189833333Y-92285714D01*
X189785714Y-92380952D01*
X189738095Y-92428571D01*
X189642857Y-92476190D01*
X189261904Y-92476190D01*
X190690476Y-91952380D02*
X190500000Y-91952380D01*
X190404761Y-92000000D01*
X190357142Y-92047619D01*
X190261904Y-92190476D01*
X190214285Y-92380952D01*
X190214285Y-92761904D01*
X190261904Y-92857142D01*
X190309523Y-92904761D01*
X190404761Y-92952380D01*
X190595238Y-92952380D01*
X190690476Y-92904761D01*
X190738095Y-92857142D01*
X190785714Y-92761904D01*
X190785714Y-92523809D01*
X190738095Y-92428571D01*
X190690476Y-92380952D01*
X190595238Y-92333333D01*
X190404761Y-92333333D01*
X190309523Y-92380952D01*
X190261904Y-92428571D01*
X190214285Y-92523809D01*
G04 #@! TO.C,R7*
X188833333Y-97752380D02*
X188500000Y-97276190D01*
X188261904Y-97752380D02*
X188261904Y-96752380D01*
X188642857Y-96752380D01*
X188738095Y-96800000D01*
X188785714Y-96847619D01*
X188833333Y-96942857D01*
X188833333Y-97085714D01*
X188785714Y-97180952D01*
X188738095Y-97228571D01*
X188642857Y-97276190D01*
X188261904Y-97276190D01*
X189166666Y-96752380D02*
X189833333Y-96752380D01*
X189404761Y-97752380D01*
G04 #@! TO.C,C1*
X170557142Y-105366666D02*
X170604761Y-105414285D01*
X170652380Y-105557142D01*
X170652380Y-105652380D01*
X170604761Y-105795238D01*
X170509523Y-105890476D01*
X170414285Y-105938095D01*
X170223809Y-105985714D01*
X170080952Y-105985714D01*
X169890476Y-105938095D01*
X169795238Y-105890476D01*
X169700000Y-105795238D01*
X169652380Y-105652380D01*
X169652380Y-105557142D01*
X169700000Y-105414285D01*
X169747619Y-105366666D01*
X170652380Y-104414285D02*
X170652380Y-104985714D01*
X170652380Y-104700000D02*
X169652380Y-104700000D01*
X169795238Y-104795238D01*
X169890476Y-104890476D01*
X169938095Y-104985714D01*
G04 #@! TO.C,C2*
X183133333Y-103957142D02*
X183085714Y-104004761D01*
X182942857Y-104052380D01*
X182847619Y-104052380D01*
X182704761Y-104004761D01*
X182609523Y-103909523D01*
X182561904Y-103814285D01*
X182514285Y-103623809D01*
X182514285Y-103480952D01*
X182561904Y-103290476D01*
X182609523Y-103195238D01*
X182704761Y-103100000D01*
X182847619Y-103052380D01*
X182942857Y-103052380D01*
X183085714Y-103100000D01*
X183133333Y-103147619D01*
X183514285Y-103147619D02*
X183561904Y-103100000D01*
X183657142Y-103052380D01*
X183895238Y-103052380D01*
X183990476Y-103100000D01*
X184038095Y-103147619D01*
X184085714Y-103242857D01*
X184085714Y-103338095D01*
X184038095Y-103480952D01*
X183466666Y-104052380D01*
X184085714Y-104052380D01*
G04 #@! TO.C,C3*
X179707142Y-88666666D02*
X179754761Y-88714285D01*
X179802380Y-88857142D01*
X179802380Y-88952380D01*
X179754761Y-89095238D01*
X179659523Y-89190476D01*
X179564285Y-89238095D01*
X179373809Y-89285714D01*
X179230952Y-89285714D01*
X179040476Y-89238095D01*
X178945238Y-89190476D01*
X178850000Y-89095238D01*
X178802380Y-88952380D01*
X178802380Y-88857142D01*
X178850000Y-88714285D01*
X178897619Y-88666666D01*
X178802380Y-88333333D02*
X178802380Y-87714285D01*
X179183333Y-88047619D01*
X179183333Y-87904761D01*
X179230952Y-87809523D01*
X179278571Y-87761904D01*
X179373809Y-87714285D01*
X179611904Y-87714285D01*
X179707142Y-87761904D01*
X179754761Y-87809523D01*
X179802380Y-87904761D01*
X179802380Y-88190476D01*
X179754761Y-88285714D01*
X179707142Y-88333333D01*
G04 #@! TO.C,C4*
X164083333Y-92257142D02*
X164035714Y-92304761D01*
X163892857Y-92352380D01*
X163797619Y-92352380D01*
X163654761Y-92304761D01*
X163559523Y-92209523D01*
X163511904Y-92114285D01*
X163464285Y-91923809D01*
X163464285Y-91780952D01*
X163511904Y-91590476D01*
X163559523Y-91495238D01*
X163654761Y-91400000D01*
X163797619Y-91352380D01*
X163892857Y-91352380D01*
X164035714Y-91400000D01*
X164083333Y-91447619D01*
X164940476Y-91685714D02*
X164940476Y-92352380D01*
X164702380Y-91304761D02*
X164464285Y-92019047D01*
X165083333Y-92019047D01*
G04 #@! TO.C,C5*
X164833333Y-100857142D02*
X164785714Y-100904761D01*
X164642857Y-100952380D01*
X164547619Y-100952380D01*
X164404761Y-100904761D01*
X164309523Y-100809523D01*
X164261904Y-100714285D01*
X164214285Y-100523809D01*
X164214285Y-100380952D01*
X164261904Y-100190476D01*
X164309523Y-100095238D01*
X164404761Y-100000000D01*
X164547619Y-99952380D01*
X164642857Y-99952380D01*
X164785714Y-100000000D01*
X164833333Y-100047619D01*
X165738095Y-99952380D02*
X165261904Y-99952380D01*
X165214285Y-100428571D01*
X165261904Y-100380952D01*
X165357142Y-100333333D01*
X165595238Y-100333333D01*
X165690476Y-100380952D01*
X165738095Y-100428571D01*
X165785714Y-100523809D01*
X165785714Y-100761904D01*
X165738095Y-100857142D01*
X165690476Y-100904761D01*
X165595238Y-100952380D01*
X165357142Y-100952380D01*
X165261904Y-100904761D01*
X165214285Y-100857142D01*
G04 #@! TO.C,C6*
X184783333Y-92957142D02*
X184735714Y-93004761D01*
X184592857Y-93052380D01*
X184497619Y-93052380D01*
X184354761Y-93004761D01*
X184259523Y-92909523D01*
X184211904Y-92814285D01*
X184164285Y-92623809D01*
X184164285Y-92480952D01*
X184211904Y-92290476D01*
X184259523Y-92195238D01*
X184354761Y-92100000D01*
X184497619Y-92052380D01*
X184592857Y-92052380D01*
X184735714Y-92100000D01*
X184783333Y-92147619D01*
X185640476Y-92052380D02*
X185450000Y-92052380D01*
X185354761Y-92100000D01*
X185307142Y-92147619D01*
X185211904Y-92290476D01*
X185164285Y-92480952D01*
X185164285Y-92861904D01*
X185211904Y-92957142D01*
X185259523Y-93004761D01*
X185354761Y-93052380D01*
X185545238Y-93052380D01*
X185640476Y-93004761D01*
X185688095Y-92957142D01*
X185735714Y-92861904D01*
X185735714Y-92623809D01*
X185688095Y-92528571D01*
X185640476Y-92480952D01*
X185545238Y-92433333D01*
X185354761Y-92433333D01*
X185259523Y-92480952D01*
X185211904Y-92528571D01*
X185164285Y-92623809D01*
G04 #@! TO.C,C7*
X186383333Y-100657142D02*
X186335714Y-100704761D01*
X186192857Y-100752380D01*
X186097619Y-100752380D01*
X185954761Y-100704761D01*
X185859523Y-100609523D01*
X185811904Y-100514285D01*
X185764285Y-100323809D01*
X185764285Y-100180952D01*
X185811904Y-99990476D01*
X185859523Y-99895238D01*
X185954761Y-99800000D01*
X186097619Y-99752380D01*
X186192857Y-99752380D01*
X186335714Y-99800000D01*
X186383333Y-99847619D01*
X186716666Y-99752380D02*
X187383333Y-99752380D01*
X186954761Y-100752380D01*
G04 #@! TO.C,C8*
X164083333Y-95507142D02*
X164035714Y-95554761D01*
X163892857Y-95602380D01*
X163797619Y-95602380D01*
X163654761Y-95554761D01*
X163559523Y-95459523D01*
X163511904Y-95364285D01*
X163464285Y-95173809D01*
X163464285Y-95030952D01*
X163511904Y-94840476D01*
X163559523Y-94745238D01*
X163654761Y-94650000D01*
X163797619Y-94602380D01*
X163892857Y-94602380D01*
X164035714Y-94650000D01*
X164083333Y-94697619D01*
X164654761Y-95030952D02*
X164559523Y-94983333D01*
X164511904Y-94935714D01*
X164464285Y-94840476D01*
X164464285Y-94792857D01*
X164511904Y-94697619D01*
X164559523Y-94650000D01*
X164654761Y-94602380D01*
X164845238Y-94602380D01*
X164940476Y-94650000D01*
X164988095Y-94697619D01*
X165035714Y-94792857D01*
X165035714Y-94840476D01*
X164988095Y-94935714D01*
X164940476Y-94983333D01*
X164845238Y-95030952D01*
X164654761Y-95030952D01*
X164559523Y-95078571D01*
X164511904Y-95126190D01*
X164464285Y-95221428D01*
X164464285Y-95411904D01*
X164511904Y-95507142D01*
X164559523Y-95554761D01*
X164654761Y-95602380D01*
X164845238Y-95602380D01*
X164940476Y-95554761D01*
X164988095Y-95507142D01*
X165035714Y-95411904D01*
X165035714Y-95221428D01*
X164988095Y-95126190D01*
X164940476Y-95078571D01*
X164845238Y-95030952D01*
G04 #@! TO.C,C9*
X174233333Y-106957142D02*
X174185714Y-107004761D01*
X174042857Y-107052380D01*
X173947619Y-107052380D01*
X173804761Y-107004761D01*
X173709523Y-106909523D01*
X173661904Y-106814285D01*
X173614285Y-106623809D01*
X173614285Y-106480952D01*
X173661904Y-106290476D01*
X173709523Y-106195238D01*
X173804761Y-106100000D01*
X173947619Y-106052380D01*
X174042857Y-106052380D01*
X174185714Y-106100000D01*
X174233333Y-106147619D01*
X174709523Y-107052380D02*
X174900000Y-107052380D01*
X174995238Y-107004761D01*
X175042857Y-106957142D01*
X175138095Y-106814285D01*
X175185714Y-106623809D01*
X175185714Y-106242857D01*
X175138095Y-106147619D01*
X175090476Y-106100000D01*
X174995238Y-106052380D01*
X174804761Y-106052380D01*
X174709523Y-106100000D01*
X174661904Y-106147619D01*
X174614285Y-106242857D01*
X174614285Y-106480952D01*
X174661904Y-106576190D01*
X174709523Y-106623809D01*
X174804761Y-106671428D01*
X174995238Y-106671428D01*
X175090476Y-106623809D01*
X175138095Y-106576190D01*
X175185714Y-106480952D01*
G04 #@! TO.C,C10*
X124737142Y-63932857D02*
X124784761Y-63980476D01*
X124832380Y-64123333D01*
X124832380Y-64218571D01*
X124784761Y-64361428D01*
X124689523Y-64456666D01*
X124594285Y-64504285D01*
X124403809Y-64551904D01*
X124260952Y-64551904D01*
X124070476Y-64504285D01*
X123975238Y-64456666D01*
X123880000Y-64361428D01*
X123832380Y-64218571D01*
X123832380Y-64123333D01*
X123880000Y-63980476D01*
X123927619Y-63932857D01*
X124832380Y-62980476D02*
X124832380Y-63551904D01*
X124832380Y-63266190D02*
X123832380Y-63266190D01*
X123975238Y-63361428D01*
X124070476Y-63456666D01*
X124118095Y-63551904D01*
X123832380Y-62361428D02*
X123832380Y-62266190D01*
X123880000Y-62170952D01*
X123927619Y-62123333D01*
X124022857Y-62075714D01*
X124213333Y-62028095D01*
X124451428Y-62028095D01*
X124641904Y-62075714D01*
X124737142Y-62123333D01*
X124784761Y-62170952D01*
X124832380Y-62266190D01*
X124832380Y-62361428D01*
X124784761Y-62456666D01*
X124737142Y-62504285D01*
X124641904Y-62551904D01*
X124451428Y-62599523D01*
X124213333Y-62599523D01*
X124022857Y-62551904D01*
X123927619Y-62504285D01*
X123880000Y-62456666D01*
X123832380Y-62361428D01*
G04 #@! TO.C,C11*
X129387142Y-61922857D02*
X129434761Y-61970476D01*
X129482380Y-62113333D01*
X129482380Y-62208571D01*
X129434761Y-62351428D01*
X129339523Y-62446666D01*
X129244285Y-62494285D01*
X129053809Y-62541904D01*
X128910952Y-62541904D01*
X128720476Y-62494285D01*
X128625238Y-62446666D01*
X128530000Y-62351428D01*
X128482380Y-62208571D01*
X128482380Y-62113333D01*
X128530000Y-61970476D01*
X128577619Y-61922857D01*
X129482380Y-60970476D02*
X129482380Y-61541904D01*
X129482380Y-61256190D02*
X128482380Y-61256190D01*
X128625238Y-61351428D01*
X128720476Y-61446666D01*
X128768095Y-61541904D01*
X129482380Y-60018095D02*
X129482380Y-60589523D01*
X129482380Y-60303809D02*
X128482380Y-60303809D01*
X128625238Y-60399047D01*
X128720476Y-60494285D01*
X128768095Y-60589523D01*
G04 #@! TO.C,R1*
X118352380Y-49666666D02*
X117876190Y-50000000D01*
X118352380Y-50238095D02*
X117352380Y-50238095D01*
X117352380Y-49857142D01*
X117400000Y-49761904D01*
X117447619Y-49714285D01*
X117542857Y-49666666D01*
X117685714Y-49666666D01*
X117780952Y-49714285D01*
X117828571Y-49761904D01*
X117876190Y-49857142D01*
X117876190Y-50238095D01*
X118352380Y-48714285D02*
X118352380Y-49285714D01*
X118352380Y-49000000D02*
X117352380Y-49000000D01*
X117495238Y-49095238D01*
X117590476Y-49190476D01*
X117638095Y-49285714D01*
G04 #@! TO.C,R2*
X113352380Y-50366666D02*
X112876190Y-50700000D01*
X113352380Y-50938095D02*
X112352380Y-50938095D01*
X112352380Y-50557142D01*
X112400000Y-50461904D01*
X112447619Y-50414285D01*
X112542857Y-50366666D01*
X112685714Y-50366666D01*
X112780952Y-50414285D01*
X112828571Y-50461904D01*
X112876190Y-50557142D01*
X112876190Y-50938095D01*
X112447619Y-49985714D02*
X112400000Y-49938095D01*
X112352380Y-49842857D01*
X112352380Y-49604761D01*
X112400000Y-49509523D01*
X112447619Y-49461904D01*
X112542857Y-49414285D01*
X112638095Y-49414285D01*
X112780952Y-49461904D01*
X113352380Y-50033333D01*
X113352380Y-49414285D01*
G04 #@! TO.C,R3*
X195733333Y-107352380D02*
X195400000Y-106876190D01*
X195161904Y-107352380D02*
X195161904Y-106352380D01*
X195542857Y-106352380D01*
X195638095Y-106400000D01*
X195685714Y-106447619D01*
X195733333Y-106542857D01*
X195733333Y-106685714D01*
X195685714Y-106780952D01*
X195638095Y-106828571D01*
X195542857Y-106876190D01*
X195161904Y-106876190D01*
X196066666Y-106352380D02*
X196685714Y-106352380D01*
X196352380Y-106733333D01*
X196495238Y-106733333D01*
X196590476Y-106780952D01*
X196638095Y-106828571D01*
X196685714Y-106923809D01*
X196685714Y-107161904D01*
X196638095Y-107257142D01*
X196590476Y-107304761D01*
X196495238Y-107352380D01*
X196209523Y-107352380D01*
X196114285Y-107304761D01*
X196066666Y-107257142D01*
G04 #@! TO.C,R4*
X120242380Y-58266666D02*
X119766190Y-58600000D01*
X120242380Y-58838095D02*
X119242380Y-58838095D01*
X119242380Y-58457142D01*
X119290000Y-58361904D01*
X119337619Y-58314285D01*
X119432857Y-58266666D01*
X119575714Y-58266666D01*
X119670952Y-58314285D01*
X119718571Y-58361904D01*
X119766190Y-58457142D01*
X119766190Y-58838095D01*
X119575714Y-57409523D02*
X120242380Y-57409523D01*
X119194761Y-57647619D02*
X119909047Y-57885714D01*
X119909047Y-57266666D01*
G04 #@! TO.C,R5*
X116952380Y-60866666D02*
X116476190Y-61200000D01*
X116952380Y-61438095D02*
X115952380Y-61438095D01*
X115952380Y-61057142D01*
X116000000Y-60961904D01*
X116047619Y-60914285D01*
X116142857Y-60866666D01*
X116285714Y-60866666D01*
X116380952Y-60914285D01*
X116428571Y-60961904D01*
X116476190Y-61057142D01*
X116476190Y-61438095D01*
X115952380Y-59961904D02*
X115952380Y-60438095D01*
X116428571Y-60485714D01*
X116380952Y-60438095D01*
X116333333Y-60342857D01*
X116333333Y-60104761D01*
X116380952Y-60009523D01*
X116428571Y-59961904D01*
X116523809Y-59914285D01*
X116761904Y-59914285D01*
X116857142Y-59961904D01*
X116904761Y-60009523D01*
X116952380Y-60104761D01*
X116952380Y-60342857D01*
X116904761Y-60438095D01*
X116857142Y-60485714D01*
G04 #@! TO.C,F1*
X121628571Y-56633333D02*
X121628571Y-56966666D01*
X122152380Y-56966666D02*
X121152380Y-56966666D01*
X121152380Y-56490476D01*
X122152380Y-55585714D02*
X122152380Y-56157142D01*
X122152380Y-55871428D02*
X121152380Y-55871428D01*
X121295238Y-55966666D01*
X121390476Y-56061904D01*
X121438095Y-56157142D01*
G04 #@! TO.C,D1*
X120252380Y-54538095D02*
X119252380Y-54538095D01*
X119252380Y-54300000D01*
X119300000Y-54157142D01*
X119395238Y-54061904D01*
X119490476Y-54014285D01*
X119680952Y-53966666D01*
X119823809Y-53966666D01*
X120014285Y-54014285D01*
X120109523Y-54061904D01*
X120204761Y-54157142D01*
X120252380Y-54300000D01*
X120252380Y-54538095D01*
X120252380Y-53014285D02*
X120252380Y-53585714D01*
X120252380Y-53300000D02*
X119252380Y-53300000D01*
X119395238Y-53395238D01*
X119490476Y-53490476D01*
X119538095Y-53585714D01*
G04 #@! TO.C,*
G04 #@! TO.C,JP1*
X196252380Y-93433333D02*
X196966666Y-93433333D01*
X197109523Y-93480952D01*
X197204761Y-93576190D01*
X197252380Y-93719047D01*
X197252380Y-93814285D01*
X197252380Y-92957142D02*
X196252380Y-92957142D01*
X196252380Y-92576190D01*
X196300000Y-92480952D01*
X196347619Y-92433333D01*
X196442857Y-92385714D01*
X196585714Y-92385714D01*
X196680952Y-92433333D01*
X196728571Y-92480952D01*
X196776190Y-92576190D01*
X196776190Y-92957142D01*
X197252380Y-91433333D02*
X197252380Y-92004761D01*
X197252380Y-91719047D02*
X196252380Y-91719047D01*
X196395238Y-91814285D01*
X196490476Y-91909523D01*
X196538095Y-92004761D01*
G04 #@! TO.C,*
G04 #@! TO.C,D2*
X122504761Y-62185714D02*
X122552380Y-62042857D01*
X122552380Y-61804761D01*
X122504761Y-61709523D01*
X122457142Y-61661904D01*
X122361904Y-61614285D01*
X122266666Y-61614285D01*
X122171428Y-61661904D01*
X122123809Y-61709523D01*
X122076190Y-61804761D01*
X122028571Y-61995238D01*
X121980952Y-62090476D01*
X121933333Y-62138095D01*
X121838095Y-62185714D01*
X121742857Y-62185714D01*
X121647619Y-62138095D01*
X121600000Y-62090476D01*
X121552380Y-61995238D01*
X121552380Y-61757142D01*
X121600000Y-61614285D01*
X122028571Y-60852380D02*
X122076190Y-60709523D01*
X122123809Y-60661904D01*
X122219047Y-60614285D01*
X122361904Y-60614285D01*
X122457142Y-60661904D01*
X122504761Y-60709523D01*
X122552380Y-60804761D01*
X122552380Y-61185714D01*
X121552380Y-61185714D01*
X121552380Y-60852380D01*
X121600000Y-60757142D01*
X121647619Y-60709523D01*
X121742857Y-60661904D01*
X121838095Y-60661904D01*
X121933333Y-60709523D01*
X121980952Y-60757142D01*
X122028571Y-60852380D01*
X122028571Y-61185714D01*
X122552380Y-60185714D02*
X121552380Y-60185714D01*
X121552380Y-59947619D01*
X121600000Y-59804761D01*
X121695238Y-59709523D01*
X121790476Y-59661904D01*
X121980952Y-59614285D01*
X122123809Y-59614285D01*
X122314285Y-59661904D01*
X122409523Y-59709523D01*
X122504761Y-59804761D01*
X122552380Y-59947619D01*
X122552380Y-60185714D01*
G04 #@! TO.C,U1*
X173452380Y-97761904D02*
X174261904Y-97761904D01*
X174357142Y-97714285D01*
X174404761Y-97666666D01*
X174452380Y-97571428D01*
X174452380Y-97380952D01*
X174404761Y-97285714D01*
X174357142Y-97238095D01*
X174261904Y-97190476D01*
X173452380Y-97190476D01*
X174452380Y-96190476D02*
X174452380Y-96761904D01*
X174452380Y-96476190D02*
X173452380Y-96476190D01*
X173595238Y-96571428D01*
X173690476Y-96666666D01*
X173738095Y-96761904D01*
G04 #@! TO.C,Y1*
X186376190Y-97476190D02*
X186852380Y-97476190D01*
X185852380Y-97809523D02*
X186376190Y-97476190D01*
X185852380Y-97142857D01*
X186852380Y-96285714D02*
X186852380Y-96857142D01*
X186852380Y-96571428D02*
X185852380Y-96571428D01*
X185995238Y-96666666D01*
X186090476Y-96761904D01*
X186138095Y-96857142D01*
G04 #@! TD*
M02*
