M48
;DRILL file {KiCad (5.0.0)} date 01/14/19 15:32:46
;FORMAT={3:3/ absolute / metric / suppress leading zeros}
FMAT,2
METRIC,TZ
T1C0.400
T2C0.500
T3C1.016
T4C1.500
T5C0.600
T6C1.700
T7C3.700
T8C4.000
%
G90
G05
M71
T1
X103100Y-62000
X103200Y-81000
X105500Y-59700
X105600Y-65500
X105700Y-46600
X105700Y-81000
X105700Y-84400
X105900Y-66425
X105900Y-85425
X105969Y-47500
X107000Y-87600
X109000Y-62000
X110100Y-63300
X111900Y-62000
X111900Y-82000
X113031Y-47500
X113031Y-66500
X113031Y-85500
X113200Y-48400
X113300Y-67300
X113400Y-50500
X113400Y-86400
X114300Y-58600
X114300Y-59900
X114900Y-96700
X115300Y-65000
X115600Y-54900
X116000Y-73200
X116000Y-78800
X116000Y-92200
X116300Y-51400
X116600Y-56300
X116600Y-58250
X117600Y-53800
X118100Y-47100
X118140Y-50750
X118356Y-49452
X118400Y-56300
X118500Y-51500
X118900Y-47200
X119200Y-51000
X119500Y-59100
X119590Y-52730
X119600Y-50100
X119608Y-47738
X120040Y-56500
X120741Y-47001
X121200Y-79500
X121535Y-47105
X121680Y-51500
X121700Y-56700
X121875Y-78800
X122354Y-48154
X122500Y-80200
X123300Y-60500
X123327Y-46007
X124700Y-46600
X124700Y-65600
X124800Y-81700
X124800Y-84600
X124900Y-85425
X124924Y-66454
X124969Y-47500
X125700Y-63300
X128700Y-60350
X130900Y-60350
X130900Y-82700
X132031Y-47500
X132031Y-66500
X132031Y-85500
X132200Y-67300
X132200Y-86300
X132300Y-48400
X133800Y-77700
X133900Y-96700
X134700Y-53900
X134700Y-59500
X134800Y-73200
X135000Y-92300
X140883Y-89967
X143700Y-41800
X143800Y-79952
X143800Y-60800
X143800Y-76900
X143961Y-42742
X143968Y-80749
X143969Y-61750
X146900Y-57300
X148000Y-58200
X149900Y-57300
X149900Y-77900
X151031Y-42750
X151031Y-61750
X151031Y-80750
X151200Y-81700
X151207Y-62530
X151300Y-43600
X152300Y-76900
X152500Y-91900
X152800Y-73000
X153200Y-74600
X153600Y-87400
X153800Y-68500
X154000Y-49700
X154000Y-55300
X154000Y-75400
X154200Y-58600
X154600Y-76100
X155475Y-86855
X155500Y-92300
X156100Y-81500
X156775Y-82800
X158400Y-72800
X158500Y-58100
X158900Y-69600
X160525Y-81475
X160925Y-72175
X161400Y-81500
X161550Y-73500
X162600Y-58600
X162700Y-39500
X162800Y-77576
X162800Y-74600
X162946Y-59354
X162969Y-40375
X162969Y-78375
X165900Y-54800
X166700Y-96200
X166800Y-97800
X167000Y-55700
X167000Y-94600
X167100Y-95400
X167100Y-97000
X167100Y-98600
X168900Y-54800
X168900Y-75575
X170031Y-40375
X170031Y-59375
X170031Y-78375
X170200Y-79200
X170300Y-60200
X170400Y-41200
X171600Y-103800
X171700Y-70700
X172150Y-88800
X172450Y-103800
X172500Y-108300
X172700Y-66200
X173000Y-47200
X173000Y-52800
X173000Y-84300
X174000Y-89700
X174800Y-70675
X174800Y-90000
X174800Y-103800
X176400Y-90000
X176400Y-103800
X176800Y-88800
X176900Y-75700
X177000Y-106700
X177200Y-103800
X177219Y-107625
X178000Y-103800
X178775Y-102400
X179646Y-104154
X180525Y-102700
X180644Y-74075
X180804Y-96176
X181000Y-93800
X181000Y-94600
X181000Y-95400
X181000Y-100200
X181752Y-60648
X181762Y-79659
X181800Y-41697
X181800Y-76800
X181969Y-42750
X181969Y-61750
X181969Y-80750
X182700Y-103600
X183200Y-102000
X184000Y-105400
X184281Y-107625
X184500Y-108500
X184900Y-57300
X185031Y-105600
X185700Y-102300
X185700Y-118700
X185900Y-58200
X185975Y-108800
X186800Y-114200
X187675Y-105600
X187900Y-57300
X187900Y-77600
X189000Y-93000
X189031Y-80750
X189032Y-61751
X189039Y-42758
X189100Y-110100
X189100Y-113800
X189301Y-81503
X189304Y-43512
X189400Y-62800
X189975Y-102234
X190600Y-102900
X190900Y-73000
X191700Y-49400
X191700Y-55000
X191725Y-92665
X191900Y-68500
X192000Y-96500
X192000Y-99700
X192000Y-100700
X192000Y-103800
X192800Y-87500
X192900Y-90400
X192900Y-107600
X192900Y-113800
X193108Y-95408
X193800Y-79850
X194200Y-96500
X194200Y-100800
X194300Y-99550
X194300Y-103800
X194600Y-95700
X194900Y-109500
X195100Y-80650
X196300Y-98700
X196300Y-104100
X197400Y-75000
X197500Y-96600
X197800Y-108400
X198200Y-90900
X198200Y-94175
X198300Y-51800
X198300Y-57400
X198500Y-70800
X198500Y-76200
X198700Y-101700
X198700Y-103000
X198700Y-106400
X198969Y-94800
X198969Y-95600
X198969Y-99800
X199614Y-109757
X199644Y-77800
X199700Y-108600
X200000Y-106825
X200300Y-98900
X200564Y-43836
X200614Y-62886
X200625Y-105400
X200700Y-79300
X200714Y-81986
X200969Y-45125
X200969Y-83125
X200969Y-64125
X203800Y-59600
X204800Y-60500
X206700Y-112400
X206799Y-111400
X206900Y-59600
X206900Y-80050
X207200Y-119600
X207200Y-125000
X208031Y-83125
X208054Y-45146
X208054Y-64146
X208200Y-65000
X208201Y-83907
X208300Y-46100
X208400Y-81200
X208825Y-107125
X208894Y-108119
X209300Y-106200
X209700Y-116400
X209700Y-119600
X209700Y-125000
X210500Y-45100
X210755Y-93245
X211400Y-60500
X211400Y-80000
X218658Y-124521
X218902Y-122308
X219400Y-121500
X224700Y-127200
X225178Y-126279
T3
X155730Y-62960
X155730Y-65500
X155730Y-68040
X158270Y-62960
X158270Y-65500
X158270Y-68040
T4
X144960Y-90830
X150040Y-90830
X201960Y-74205
X207040Y-74205
X182960Y-90830
X188040Y-90830
X182960Y-71830
X188040Y-71830
X144960Y-71830
X150040Y-71830
X125960Y-76580
X131040Y-76580
X182960Y-52830
X188040Y-52830
X144960Y-52830
X150040Y-52830
X214258Y-131100
X218419Y-134014
X178210Y-117705
X183290Y-117705
X201960Y-55205
X207040Y-55205
X125960Y-95580
X131040Y-95580
X106960Y-76580
X112040Y-76580
X201960Y-93205
X207040Y-93205
X163960Y-88455
X169040Y-88455
X125960Y-57580
X131040Y-57580
X106960Y-57580
X112040Y-57580
X163960Y-69455
X169040Y-69455
X106960Y-95580
X112040Y-95580
X163960Y-50455
X169040Y-50455
X198117Y-119657
X203024Y-120972
T5
X116982Y-44933
X124368Y-43631
T6
X180420Y-66750
X190580Y-66750
X142420Y-66750
X152580Y-66750
X123420Y-71500
X133580Y-71500
X180420Y-47750
X190580Y-47750
X142420Y-47750
X152580Y-47750
X215091Y-125482
X223414Y-131310
X175670Y-112625
X185830Y-112625
X199420Y-50125
X209580Y-50125
X123420Y-90500
X133580Y-90500
X104420Y-71500
X114580Y-71500
X199420Y-88125
X209580Y-88125
X161420Y-83375
X171580Y-83375
X123420Y-52500
X133580Y-52500
X104420Y-52500
X114580Y-52500
X161420Y-64375
X171580Y-64375
X104420Y-90500
X114580Y-90500
X161420Y-45375
X171580Y-45375
X196978Y-114093
X206792Y-116722
X142420Y-85750
X152580Y-85750
X199420Y-69125
X209580Y-69125
X180420Y-85750
X190580Y-85750
T7
X157000Y-75063
X157000Y-56063
X119000Y-81000
X195000Y-58438
X195000Y-77438
X119000Y-62000
T8
X166500Y-45375
X201885Y-115407
X147500Y-85750
X204500Y-69125
X185500Y-85750
X185500Y-66750
X147500Y-66750
X128500Y-71500
X185500Y-47750
X147500Y-47750
X219252Y-128396
X180750Y-112625
X204500Y-50125
X128500Y-90500
X109500Y-71500
X204500Y-88125
X166500Y-83375
X128500Y-52500
X109500Y-52500
X166500Y-64375
X109500Y-90500
T2
X114507Y-41404G85X114307Y-40272
G05
X115306Y-45934G85X115106Y-44802
G05
X125487Y-39468G85X125288Y-38336
G05
X126286Y-43998G85X126087Y-42866
G05
T4
X145000Y-90172G85X143680Y-88288
G05
X149991Y-89763G85X151329Y-88277
G05
X202000Y-73547G85X200680Y-71663
G05
X206991Y-73138G85X208329Y-71652
G05
X183000Y-90172G85X181680Y-88288
G05
X187991Y-89763G85X189329Y-88277
G05
X183000Y-71172G85X181680Y-69288
G05
X187991Y-70763G85X189329Y-69277
G05
X145000Y-71172G85X143680Y-69288
G05
X149991Y-70763G85X151329Y-69277
G05
X126000Y-75922G85X124680Y-74038
G05
X130991Y-75513G85X132329Y-74027
G05
X183000Y-52172G85X181680Y-50288
G05
X187991Y-51763G85X189329Y-50277
G05
X145000Y-52172G85X143680Y-50288
G05
X149991Y-51763G85X151329Y-50277
G05
X214668Y-130584G85X214668Y-128284
G05
X218991Y-133112G85X220940Y-132662
G05
X178250Y-117047G85X176930Y-115163
G05
X183241Y-116638G85X184579Y-115152
G05
X202000Y-54547G85X200680Y-52663
G05
X206991Y-54138G85X208329Y-52652
G05
X126000Y-94922G85X124680Y-93038
G05
X130991Y-94513G85X132329Y-93027
G05
X107000Y-75922G85X105680Y-74038
G05
X111991Y-75513G85X113329Y-74027
G05
X202000Y-92547G85X200680Y-90663
G05
X206991Y-92138G85X208329Y-90652
G05
X164000Y-87797G85X162680Y-85913
G05
X168991Y-87388G85X170329Y-85902
G05
X126000Y-56922G85X124680Y-55038
G05
X130991Y-56513G85X132329Y-55027
G05
X107000Y-56922G85X105680Y-55038
G05
X111991Y-56513G85X113329Y-55027
G05
X164000Y-68797G85X162680Y-66913
G05
X168991Y-68388G85X170329Y-66902
G05
X107000Y-94922G85X105680Y-93038
G05
X111991Y-94513G85X113329Y-93027
G05
X164000Y-49797G85X162680Y-47913
G05
X168991Y-49388G85X170329Y-47902
G05
X198325Y-119032G85X197539Y-116870
G05
X203252Y-119929G85X204930Y-118839
G05
T0
M30
